<svg xmlns="http://www.w3.org/2000/svg">
    <symbol id="chat" viewBox="0 0 20 20">
        <path
            d="M5.65 8.925C5.93333 8.925 6.17083 8.82917 6.3625 8.6375C6.55417 8.44583 6.65 8.20833 6.65 7.925C6.65 7.64167 6.55417 7.40417 6.3625 7.2125C6.17083 7.02083 5.93333 6.925 5.65 6.925C5.36667 6.925 5.12917 7.02083 4.9375 7.2125C4.74583 7.40417 4.65 7.64167 4.65 7.925C4.65 8.20833 4.74583 8.44583 4.9375 8.6375C5.12917 8.82917 5.36667 8.925 5.65 8.925ZM10.075 8.925C10.3583 8.925 10.5958 8.82917 10.7875 8.6375C10.9792 8.44583 11.075 8.20833 11.075 7.925C11.075 7.64167 10.9792 7.40417 10.7875 7.2125C10.5958 7.02083 10.3583 6.925 10.075 6.925C9.79167 6.925 9.55417 7.02083 9.3625 7.2125C9.17083 7.40417 9.075 7.64167 9.075 7.925C9.075 8.20833 9.17083 8.44583 9.3625 8.6375C9.55417 8.82917 9.79167 8.925 10.075 8.925ZM14.325 8.925C14.6083 8.925 14.8458 8.82917 15.0375 8.6375C15.2292 8.44583 15.325 8.20833 15.325 7.925C15.325 7.64167 15.2292 7.40417 15.0375 7.2125C14.8458 7.02083 14.6083 6.925 14.325 6.925C14.0417 6.925 13.8042 7.02083 13.6125 7.2125C13.4208 7.40417 13.325 7.64167 13.325 7.925C13.325 8.20833 13.4208 8.44583 13.6125 8.6375C13.8042 8.82917 14.0417 8.925 14.325 8.925ZM0 20V1.5C0 1.11667 0.15 0.770833 0.45 0.4625C0.75 0.154167 1.1 0 1.5 0H18.5C18.8833 0 19.2292 0.154167 19.5375 0.4625C19.8458 0.770833 20 1.11667 20 1.5V14.5C20 14.8833 19.8458 15.2292 19.5375 15.5375C19.2292 15.8458 18.8833 16 18.5 16H4L0 20ZM1.5 16.375L3.375 14.5H18.5V1.5H1.5V16.375ZM1.5 1.5V14.5V16.375V1.5Z" />
    </symbol>
    <symbol id="delete" viewBox="0 0 17 20">
        <path d="M2.68281 20C2.25781 20 1.88594 19.8333 1.56719 19.5C1.24844 19.1667 1.08906 18.7778 1.08906 18.3333V2.5H0V0.833333H4.99375V0H12.0063V0.833333H17V2.5H15.9109V18.3333C15.9109 18.7778 15.7516 19.1667 15.4328 19.5C15.1141 19.8333 14.7422 20 14.3172 20H2.68281ZM14.3172 2.5H2.68281V18.3333H14.3172V2.5ZM5.49844 15.9444H7.09219V4.86111H5.49844V15.9444ZM9.90781 15.9444H11.5016V4.86111H9.90781V15.9444Z"/>
    </symbol>
</svg>