<svg xmlns="http://www.w3.org/2000/svg">
    <symbol id="chat" viewBox="0 0 20 20">
        <path
            d="M5.65 8.925C5.93333 8.925 6.17083 8.82917 6.3625 8.6375C6.55417 8.44583 6.65 8.20833 6.65 7.925C6.65 7.64167 6.55417 7.40417 6.3625 7.2125C6.17083 7.02083 5.93333 6.925 5.65 6.925C5.36667 6.925 5.12917 7.02083 4.9375 7.2125C4.74583 7.40417 4.65 7.64167 4.65 7.925C4.65 8.20833 4.74583 8.44583 4.9375 8.6375C5.12917 8.82917 5.36667 8.925 5.65 8.925ZM10.075 8.925C10.3583 8.925 10.5958 8.82917 10.7875 8.6375C10.9792 8.44583 11.075 8.20833 11.075 7.925C11.075 7.64167 10.9792 7.40417 10.7875 7.2125C10.5958 7.02083 10.3583 6.925 10.075 6.925C9.79167 6.925 9.55417 7.02083 9.3625 7.2125C9.17083 7.40417 9.075 7.64167 9.075 7.925C9.075 8.20833 9.17083 8.44583 9.3625 8.6375C9.55417 8.82917 9.79167 8.925 10.075 8.925ZM14.325 8.925C14.6083 8.925 14.8458 8.82917 15.0375 8.6375C15.2292 8.44583 15.325 8.20833 15.325 7.925C15.325 7.64167 15.2292 7.40417 15.0375 7.2125C14.8458 7.02083 14.6083 6.925 14.325 6.925C14.0417 6.925 13.8042 7.02083 13.6125 7.2125C13.4208 7.40417 13.325 7.64167 13.325 7.925C13.325 8.20833 13.4208 8.44583 13.6125 8.6375C13.8042 8.82917 14.0417 8.925 14.325 8.925ZM0 20V1.5C0 1.11667 0.15 0.770833 0.45 0.4625C0.75 0.154167 1.1 0 1.5 0H18.5C18.8833 0 19.2292 0.154167 19.5375 0.4625C19.8458 0.770833 20 1.11667 20 1.5V14.5C20 14.8833 19.8458 15.2292 19.5375 15.5375C19.2292 15.8458 18.8833 16 18.5 16H4L0 20ZM1.5 16.375L3.375 14.5H18.5V1.5H1.5V16.375ZM1.5 1.5V14.5V16.375V1.5Z" />
    </symbol>
    <symbol id="delete" viewBox="0 0 17 20">
        <path d="M2.68281 20C2.25781 20 1.88594 19.8333 1.56719 19.5C1.24844 19.1667 1.08906 18.7778 1.08906 18.3333V2.5H0V0.833333H4.99375V0H12.0063V0.833333H17V2.5H15.9109V18.3333C15.9109 18.7778 15.7516 19.1667 15.4328 19.5C15.1141 19.8333 14.7422 20 14.3172 20H2.68281ZM14.3172 2.5H2.68281V18.3333H14.3172V2.5ZM5.49844 15.9444H7.09219V4.86111H5.49844V15.9444ZM9.90781 15.9444H11.5016V4.86111H9.90781V15.9444Z"/>
    </symbol>
    <symbol id="add" viewBox="0 0 30 30">
        <path d="M13.3929 30V16.6071H0V13.3929H13.3929V0H16.6071V13.3929H30V16.6071H16.6071V30H13.3929Z"/>
    </symbol>
    <symbol id="breeding" viewBox="0 0 18 17">
        <path d="M15.4252 9.68053C13.9718 11.2776 12.0289 13.1561 9.59194 15.3172C9.59155 15.3176 9.59115 15.3179 9.59075 15.3183L9 15.8355L8.40925 15.3183C8.40885 15.3179 8.40845 15.3176 8.40806 15.3172C5.97111 13.1561 4.02825 11.2776 2.57479 9.68053C1.16144 8.12749 0.5 6.60504 0.5 5.10574C0.5 3.92585 0.902804 2.962 1.7094 2.17948C2.518 1.39503 3.51196 1.00001 4.725 1.00001C5.40954 1.00001 6.09408 1.15896 6.78284 1.48637C7.44212 1.79978 8.04791 2.32308 8.59382 3.08354L8.97604 3.61598L9.38855 3.10665C10.018 2.3295 10.6481 1.79706 11.2731 1.48099C11.9091 1.15937 12.5744 1.00001 13.275 1.00001C14.488 1.00001 15.482 1.39503 16.2906 2.17948C17.0972 2.962 17.5 3.92585 17.5 5.10574C17.5 6.60504 16.8386 8.12749 15.4252 9.68053Z"/>
    </symbol>
    <symbol id="favorite" viewBox="0 0 20 20">
        <path d="M3.825 20L6.15 12.4L0 8H7.6L10 0L12.4 8H20L13.85 12.4L16.175 20L10 15.3L3.825 20Z"/>
    </symbol>
    <symbol id="plus" viewBox="0 0 20 20">
        <path d="M8.75 15.5833H11.25V11.25H15.5833V8.75H11.25V4.41667H8.75V8.75H4.41667V11.25H8.75V15.5833ZM1.66667 20C1.22222 20 0.833333 19.8333 0.5 19.5C0.166667 19.1667 0 18.7778 0 18.3333V1.66667C0 1.22222 0.166667 0.833333 0.5 0.5C0.833333 0.166667 1.22222 0 1.66667 0H18.3333C18.7778 0 19.1667 0.166667 19.5 0.5C19.8333 0.833333 20 1.22222 20 1.66667V18.3333C20 18.7778 19.8333 19.1667 19.5 19.5C19.1667 19.8333 18.7778 20 18.3333 20H1.66667ZM1.66667 18.3333H18.3333V1.66667H1.66667V18.3333ZM1.66667 18.3333V1.66667V18.3333Z"/>
    </symbol>
    <symbol id="minus" viewBox="0 0 17 17">
        <path d="M7.4375 9.5625H9.5625H13.2458V7.4375H9.5625H7.4375H3.75417V9.5625H7.4375ZM1.41667 17C1.03889 17 0.708333 16.8583 0.425 16.575C0.141667 16.2917 0 15.9611 0 15.5833V1.41667C0 1.03889 0.141667 0.708333 0.425 0.425C0.708333 0.141667 1.03889 0 1.41667 0H15.5833C15.9611 0 16.2917 0.141667 16.575 0.425C16.8583 0.708333 17 1.03889 17 1.41667V15.5833C17 15.9611 16.8583 16.2917 16.575 16.575C16.2917 16.8583 15.9611 17 15.5833 17H1.41667ZM1.41667 15.5833H15.5833V1.41667H1.41667V15.5833Z"/>
    </symbol>
    <symbol id="donate" viewBox="0 0 22 20">
        <path d="M11 20L0 6.66667L3.3 0H18.7L22 6.66667L11 20ZM7.92 5.83333H14.08L12.0175 1.66667H9.9825L7.92 5.83333ZM10.175 16.4167V7.5H2.8325L10.175 16.4167ZM11.825 16.4167L19.1675 7.5H11.825V16.4167ZM15.9225 5.83333H19.6625L17.6 1.66667H13.86L15.9225 5.83333ZM2.3375 5.83333H6.0775L8.14 1.66667H4.4L2.3375 5.83333Z" />
    </symbol>
    <symbol id="flag"  viewBox="0 0 170 241">
        <path d="M1.5 1.5H168.5V179.351L85 239.155L1.5 179.351V1.5Z" />
    </symbol>
    <symbol id="administration" viewBox="0 0 26 20">
        <path d="M2.375 20C1.875 20 1.4375 19.8125 1.0625 19.4375C0.6875 19.0625 0.5 18.625 0.5 18.125V13.3438C1.27083 13.1771 1.91146 12.776 2.42187 12.1406C2.93229 11.5052 3.1875 10.7917 3.1875 10C3.1875 9.20833 2.93229 8.48958 2.42187 7.84375C1.91146 7.19792 1.27083 6.80208 0.5 6.65625V1.875C0.5 1.375 0.6875 0.9375 1.0625 0.5625C1.4375 0.1875 1.875 0 2.375 0H23.625C24.125 0 24.5625 0.1875 24.9375 0.5625C25.3125 0.9375 25.5 1.375 25.5 1.875V6.65625C24.7292 6.80208 24.0937 7.19792 23.5937 7.84375C23.0937 8.48958 22.8437 9.20833 22.8437 10C22.8437 10.7917 23.0937 11.5052 23.5937 12.1406C24.0937 12.776 24.7292 13.1771 25.5 13.3438V18.125C25.5 18.625 25.3125 19.0625 24.9375 19.4375C24.5625 19.8125 24.125 20 23.625 20H2.375ZM2.375 18.125H23.625V14.7188C22.875 14.1979 22.2448 13.526 21.7344 12.7031C21.224 11.8802 20.9687 10.9792 20.9687 10C20.9687 9.02083 21.224 8.11979 21.7344 7.29687C22.2448 6.47396 22.875 5.80208 23.625 5.28125V1.875H2.375V5.28125C3.125 5.80208 3.76042 6.47396 4.28125 7.29687C4.80208 8.11979 5.0625 9.02083 5.0625 10C5.0625 10.9792 4.80208 11.8802 4.28125 12.7031C3.76042 13.526 3.125 14.1979 2.375 14.7188V18.125ZM9.75 15.0625L13 12.5312L16.25 15.0625L15 11.0625L18.0625 8.5H14.3125L13 4.6875L11.6875 8.5H7.9375L11 11.0625L9.75 15.0625Z"/>
    </symbol>    
    <symbol id="setting" viewBox="0 0 30 30">
        <path d="M26.4693 13.5313C26.5335 14 26.5656 14.4844 26.5656 15C26.5656 15.5 26.5335 16 26.4532 16.4688L29.7141 18.9375C30.0032 19.1563 30.0835 19.5781 29.9068 19.8906L26.8227 25.0781C26.6299 25.4219 26.2283 25.5313 25.8749 25.4219L22.0358 23.9219C21.2326 24.5156 20.3812 25.0156 19.4335 25.3906L18.8552 29.3594C18.791 29.7344 18.4697 30 18.0842 30H11.9158C11.5303 30 11.2251 29.7344 11.1608 29.3594L10.5826 25.3906C9.63483 25.0156 8.7674 24.5 7.9803 23.9219L4.14114 25.4219C3.78775 25.5469 3.38616 25.4219 3.1934 25.0781L0.125295 19.8906C-0.0674657 19.5625 -0.0032123 19.1563 0.318056 18.9375L3.57893 16.4688C3.49861 16 3.43436 15.4844 3.43436 15C3.43436 14.5156 3.46648 14 3.5468 13.5313L0.285929 11.0625C-0.00321228 10.8438 -0.0835291 10.4219 0.0931683 10.1094L3.17734 4.92188C3.3701 4.57813 3.77169 4.46875 4.12508 4.57813L7.96423 6.07813C8.7674 5.48438 9.61876 4.98438 10.5665 4.60938L11.1448 0.640626C11.2251 0.265626 11.5303 1.09673e-06 11.9158 1.09673e-06H18.0842C18.4697 1.09673e-06 18.791 0.265626 18.8392 0.640626L19.4174 4.60938C20.3652 4.98438 21.2326 5.48438 22.0197 6.07813L25.8589 4.57813C26.2123 4.45313 26.6138 4.57813 26.8066 4.92188L29.8908 10.1094C30.0835 10.4531 30.0032 10.8438 29.698 11.0625L26.4693 13.5313ZM15 9.375C11.8194 9.375 9.21718 11.9063 9.21718 15C9.21718 18.0938 11.8194 20.625 15 20.625C18.1806 20.625 20.7828 18.0938 20.7828 15C20.7828 11.9063 18.1806 9.375 15 9.375Z"/>
    </symbol>
</svg>
