<svg xmlns="http://www.w3.org/2000/svg">
    <symbol id="chat" viewBox="0 0 20 20">
        <path
            d="M5.65 8.925C5.93333 8.925 6.17083 8.82917 6.3625 8.6375C6.55417 8.44583 6.65 8.20833 6.65 7.925C6.65 7.64167 6.55417 7.40417 6.3625 7.2125C6.17083 7.02083 5.93333 6.925 5.65 6.925C5.36667 6.925 5.12917 7.02083 4.9375 7.2125C4.74583 7.40417 4.65 7.64167 4.65 7.925C4.65 8.20833 4.74583 8.44583 4.9375 8.6375C5.12917 8.82917 5.36667 8.925 5.65 8.925ZM10.075 8.925C10.3583 8.925 10.5958 8.82917 10.7875 8.6375C10.9792 8.44583 11.075 8.20833 11.075 7.925C11.075 7.64167 10.9792 7.40417 10.7875 7.2125C10.5958 7.02083 10.3583 6.925 10.075 6.925C9.79167 6.925 9.55417 7.02083 9.3625 7.2125C9.17083 7.40417 9.075 7.64167 9.075 7.925C9.075 8.20833 9.17083 8.44583 9.3625 8.6375C9.55417 8.82917 9.79167 8.925 10.075 8.925ZM14.325 8.925C14.6083 8.925 14.8458 8.82917 15.0375 8.6375C15.2292 8.44583 15.325 8.20833 15.325 7.925C15.325 7.64167 15.2292 7.40417 15.0375 7.2125C14.8458 7.02083 14.6083 6.925 14.325 6.925C14.0417 6.925 13.8042 7.02083 13.6125 7.2125C13.4208 7.40417 13.325 7.64167 13.325 7.925C13.325 8.20833 13.4208 8.44583 13.6125 8.6375C13.8042 8.82917 14.0417 8.925 14.325 8.925ZM0 20V1.5C0 1.11667 0.15 0.770833 0.45 0.4625C0.75 0.154167 1.1 0 1.5 0H18.5C18.8833 0 19.2292 0.154167 19.5375 0.4625C19.8458 0.770833 20 1.11667 20 1.5V14.5C20 14.8833 19.8458 15.2292 19.5375 15.5375C19.2292 15.8458 18.8833 16 18.5 16H4L0 20ZM1.5 16.375L3.375 14.5H18.5V1.5H1.5V16.375ZM1.5 1.5V14.5V16.375V1.5Z" />
    </symbol>
    <symbol id="delete" viewBox="0 0 17 20">
        <path d="M2.68281 20C2.25781 20 1.88594 19.8333 1.56719 19.5C1.24844 19.1667 1.08906 18.7778 1.08906 18.3333V2.5H0V0.833333H4.99375V0H12.0063V0.833333H17V2.5H15.9109V18.3333C15.9109 18.7778 15.7516 19.1667 15.4328 19.5C15.1141 19.8333 14.7422 20 14.3172 20H2.68281ZM14.3172 2.5H2.68281V18.3333H14.3172V2.5ZM5.49844 15.9444H7.09219V4.86111H5.49844V15.9444ZM9.90781 15.9444H11.5016V4.86111H9.90781V15.9444Z"/>
    </symbol>
    <symbol id="add" viewBox="0 0 30 30">
        <path d="M13.3929 30V16.6071H0V13.3929H13.3929V0H16.6071V13.3929H30V16.6071H16.6071V30H13.3929Z"/>
    </symbol>
    <symbol id="breeding" viewBox="0 0 18 17">
        <path d="M15.4252 9.68053C13.9718 11.2776 12.0289 13.1561 9.59194 15.3172C9.59155 15.3176 9.59115 15.3179 9.59075 15.3183L9 15.8355L8.40925 15.3183C8.40885 15.3179 8.40845 15.3176 8.40806 15.3172C5.97111 13.1561 4.02825 11.2776 2.57479 9.68053C1.16144 8.12749 0.5 6.60504 0.5 5.10574C0.5 3.92585 0.902804 2.962 1.7094 2.17948C2.518 1.39503 3.51196 1.00001 4.725 1.00001C5.40954 1.00001 6.09408 1.15896 6.78284 1.48637C7.44212 1.79978 8.04791 2.32308 8.59382 3.08354L8.97604 3.61598L9.38855 3.10665C10.018 2.3295 10.6481 1.79706 11.2731 1.48099C11.9091 1.15937 12.5744 1.00001 13.275 1.00001C14.488 1.00001 15.482 1.39503 16.2906 2.17948C17.0972 2.962 17.5 3.92585 17.5 5.10574C17.5 6.60504 16.8386 8.12749 15.4252 9.68053Z"/>
    </symbol>
    <symbol id="favorite" viewBox="0 0 20 20">
        <path d="M3.825 20L6.15 12.4L0 8H7.6L10 0L12.4 8H20L13.85 12.4L16.175 20L10 15.3L3.825 20Z"/>
    </symbol>
    <symbol id="plus" viewBox="0 0 20 20">
        <path d="M8.75 15.5833H11.25V11.25H15.5833V8.75H11.25V4.41667H8.75V8.75H4.41667V11.25H8.75V15.5833ZM1.66667 20C1.22222 20 0.833333 19.8333 0.5 19.5C0.166667 19.1667 0 18.7778 0 18.3333V1.66667C0 1.22222 0.166667 0.833333 0.5 0.5C0.833333 0.166667 1.22222 0 1.66667 0H18.3333C18.7778 0 19.1667 0.166667 19.5 0.5C19.8333 0.833333 20 1.22222 20 1.66667V18.3333C20 18.7778 19.8333 19.1667 19.5 19.5C19.1667 19.8333 18.7778 20 18.3333 20H1.66667ZM1.66667 18.3333H18.3333V1.66667H1.66667V18.3333ZM1.66667 18.3333V1.66667V18.3333Z"/>
    </symbol>
    <symbol id="minus" viewBox="0 0 17 17">
        <path d="M7.4375 9.5625H9.5625H13.2458V7.4375H9.5625H7.4375H3.75417V9.5625H7.4375ZM1.41667 17C1.03889 17 0.708333 16.8583 0.425 16.575C0.141667 16.2917 0 15.9611 0 15.5833V1.41667C0 1.03889 0.141667 0.708333 0.425 0.425C0.708333 0.141667 1.03889 0 1.41667 0H15.5833C15.9611 0 16.2917 0.141667 16.575 0.425C16.8583 0.708333 17 1.03889 17 1.41667V15.5833C17 15.9611 16.8583 16.2917 16.575 16.575C16.2917 16.8583 15.9611 17 15.5833 17H1.41667ZM1.41667 15.5833H15.5833V1.41667H1.41667V15.5833Z"/>
    </symbol>
    <symbol id="donate" viewBox="0 0 22 20">
        <path d="M11 20L0 6.66667L3.3 0H18.7L22 6.66667L11 20ZM7.92 5.83333H14.08L12.0175 1.66667H9.9825L7.92 5.83333ZM10.175 16.4167V7.5H2.8325L10.175 16.4167ZM11.825 16.4167L19.1675 7.5H11.825V16.4167ZM15.9225 5.83333H19.6625L17.6 1.66667H13.86L15.9225 5.83333ZM2.3375 5.83333H6.0775L8.14 1.66667H4.4L2.3375 5.83333Z" />
    </symbol>
</svg>
