<svg width="34" height="13" viewBox="0 0 34 13" fill="none" xmlns="http://www.w3.org/2000/svg">
<path d="M5.274 0.0999992C6.28267 0.0999992 7.13267 0.196333 7.824 0.389C8.52667 0.570333 9.09333 0.887666 9.524 1.341C9.95467 1.783 10.2663 2.395 10.459 3.177C10.6517 3.959 10.748 4.945 10.748 6.135C10.748 7.325 10.6517 8.311 10.459 9.093C10.2663 9.875 9.95467 10.4927 9.524 10.946C9.09333 11.388 8.52667 11.7053 7.824 11.898C7.13267 12.0793 6.28267 12.17 5.274 12.17C4.29933 12.17 3.404 12.153 2.588 12.119C1.772 12.085 0.995667 12.0453 0.259 12L1.755 9.382C2.15167 9.42733 2.65033 9.46133 3.251 9.484C3.863 9.49533 4.53733 9.501 5.274 9.501C5.69333 9.501 6.01633 9.41033 6.243 9.229C6.46967 9.04767 6.62833 8.71333 6.719 8.226C6.80967 7.73867 6.855 7.04167 6.855 6.135C6.855 5.22833 6.80967 4.53133 6.719 4.044C6.62833 3.55667 6.46967 3.22233 6.243 3.041C6.01633 2.85967 5.69333 2.769 5.274 2.769C4.58267 2.769 3.97067 2.769 3.438 2.769C2.91667 2.769 2.40667 2.76333 1.908 2.752L0.259 0.269999C1.007 0.224666 1.77767 0.185 2.571 0.151C3.37567 0.116999 4.27667 0.0999992 5.274 0.0999992ZM3.948 0.269999V12H0.259V0.269999H3.948ZM14.8479 0.202C15.5279 0.202 16.2249 0.207666 16.9389 0.219C17.6643 0.219 18.3726 0.235999 19.0639 0.269999C19.7553 0.292666 20.3843 0.343666 20.9509 0.422999L20.7809 3.024H16.4799C16.2646 3.024 16.0946 3.08067 15.9699 3.194C15.8453 3.30733 15.7829 3.45467 15.7829 3.636V8.634C15.7829 8.81533 15.8453 8.96267 15.9699 9.076C16.0946 9.18933 16.2646 9.246 16.4799 9.246H20.7809L20.9509 11.847C20.3843 11.915 19.7553 11.966 19.0639 12C18.3726 12.034 17.6643 12.051 16.9389 12.051C16.2249 12.0623 15.5279 12.068 14.8479 12.068C14.0433 12.068 13.3803 11.8243 12.8589 11.337C12.3489 10.8383 12.0939 10.1923 12.0939 9.399V2.871C12.0939 2.07767 12.3489 1.43733 12.8589 0.949999C13.3803 0.451333 14.0433 0.202 14.8479 0.202ZM12.3999 4.775H20.1689V7.223H12.3999V4.775ZM32.7779 0.269999L30.1089 6.016L33.0159 12H29.3609L26.7089 6.016L29.1399 0.269999H32.7779ZM25.2129 0.269999L27.6439 6.016L24.9919 12H21.3369L24.2439 6.016L21.5749 0.269999H25.2129ZM28.7999 4.962V7.002H25.2639V4.962H28.7999Z" fill="#F0E6D2"/>
</svg>
