<svg width="13" height="13" viewBox="0 0 13 13" fill="none" xmlns="http://www.w3.org/2000/svg">
<path d="M7.16748 12.7298C6.98737 12.9099 6.76487 13 6.5 13C6.23513 13 6.01263 12.9099 5.83252 12.7298L0.270171 7.16748C0.0900571 6.98737 0 6.76487 0 6.5C0 6.23513 0.0900571 6.01263 0.270171 5.83252L5.83252 0.270171C6.01263 0.0900571 6.23513 0 6.5 0C6.76487 0 6.98737 0.0900571 7.16748 0.270171L12.7298 5.83252C12.9099 6.01263 13 6.23513 13 6.5C13 6.76487 12.9099 6.98737 12.7298 7.16748L7.16748 12.7298ZM6.5 12.0465L12.0465 6.5L6.5 0.953545L0.953545 6.5L6.5 12.0465ZM6.02323 7.1357H6.97677V3.32152H6.02323V7.1357ZM6.5 8.88386C6.62714 8.88386 6.73839 8.83619 6.83374 8.74083C6.92909 8.64548 6.97677 8.53423 6.97677 8.40709C6.97677 8.27995 6.92909 8.1687 6.83374 8.07335C6.73839 7.97799 6.62714 7.93032 6.5 7.93032C6.37286 7.93032 6.26161 7.97799 6.16626 8.07335C6.0709 8.1687 6.02323 8.27995 6.02323 8.40709C6.02323 8.53423 6.0709 8.64548 6.16626 8.74083C6.26161 8.83619 6.37286 8.88386 6.5 8.88386Z" fill="#CA4C57"/>
</svg>
