<svg width="30" height="30" viewBox="0 0 30 30" fill="none" xmlns="http://www.w3.org/2000/svg">
<path d="M26.4693 13.5313C26.5335 14 26.5656 14.4844 26.5656 15C26.5656 15.5 26.5335 16 26.4532 16.4688L29.7141 18.9375C30.0032 19.1563 30.0835 19.5781 29.9068 19.8906L26.8227 25.0781C26.6299 25.4219 26.2283 25.5313 25.8749 25.4219L22.0358 23.9219C21.2326 24.5156 20.3812 25.0156 19.4335 25.3906L18.8552 29.3594C18.791 29.7344 18.4697 30 18.0842 30H11.9158C11.5303 30 11.2251 29.7344 11.1608 29.3594L10.5826 25.3906C9.63483 25.0156 8.7674 24.5 7.9803 23.9219L4.14114 25.4219C3.78775 25.5469 3.38616 25.4219 3.1934 25.0781L0.125295 19.8906C-0.0674657 19.5625 -0.0032123 19.1563 0.318056 18.9375L3.57893 16.4688C3.49861 16 3.43436 15.4844 3.43436 15C3.43436 14.5156 3.46648 14 3.5468 13.5313L0.285929 11.0625C-0.00321228 10.8438 -0.0835291 10.4219 0.0931683 10.1094L3.17734 4.92188C3.3701 4.57813 3.77169 4.46875 4.12508 4.57813L7.96423 6.07813C8.7674 5.48438 9.61876 4.98438 10.5665 4.60938L11.1448 0.640626C11.2251 0.265626 11.5303 1.09673e-06 11.9158 1.09673e-06H18.0842C18.4697 1.09673e-06 18.791 0.265626 18.8392 0.640626L19.4174 4.60938C20.3652 4.98438 21.2326 5.48438 22.0197 6.07813L25.8589 4.57813C26.2123 4.45313 26.6138 4.57813 26.8066 4.92188L29.8908 10.1094C30.0835 10.4531 30.0032 10.8438 29.698 11.0625L26.4693 13.5313ZM15 9.375C11.8194 9.375 9.21718 11.9063 9.21718 15C9.21718 18.0938 11.8194 20.625 15 20.625C18.1806 20.625 20.7828 18.0938 20.7828 15C20.7828 11.9063 18.1806 9.375 15 9.375Z" fill="white"/>
</svg>
