<svg width="26" height="20" viewBox="0 0 26 20" fill="none" xmlns="http://www.w3.org/2000/svg">
<path d="M2.375 20C1.875 20 1.4375 19.8125 1.0625 19.4375C0.6875 19.0625 0.5 18.625 0.5 18.125V13.3438C1.27083 13.1771 1.91146 12.776 2.42187 12.1406C2.93229 11.5052 3.1875 10.7917 3.1875 10C3.1875 9.20833 2.93229 8.48958 2.42187 7.84375C1.91146 7.19792 1.27083 6.80208 0.5 6.65625V1.875C0.5 1.375 0.6875 0.9375 1.0625 0.5625C1.4375 0.1875 1.875 0 2.375 0H23.625C24.125 0 24.5625 0.1875 24.9375 0.5625C25.3125 0.9375 25.5 1.375 25.5 1.875V6.65625C24.7292 6.80208 24.0937 7.19792 23.5937 7.84375C23.0937 8.48958 22.8437 9.20833 22.8437 10C22.8437 10.7917 23.0937 11.5052 23.5937 12.1406C24.0937 12.776 24.7292 13.1771 25.5 13.3438V18.125C25.5 18.625 25.3125 19.0625 24.9375 19.4375C24.5625 19.8125 24.125 20 23.625 20H2.375ZM2.375 18.125H23.625V14.7188C22.875 14.1979 22.2448 13.526 21.7344 12.7031C21.224 11.8802 20.9687 10.9792 20.9687 10C20.9687 9.02083 21.224 8.11979 21.7344 7.29687C22.2448 6.47396 22.875 5.80208 23.625 5.28125V1.875H2.375V5.28125C3.125 5.80208 3.76042 6.47396 4.28125 7.29687C4.80208 8.11979 5.0625 9.02083 5.0625 10C5.0625 10.9792 4.80208 11.8802 4.28125 12.7031C3.76042 13.526 3.125 14.1979 2.375 14.7188V18.125ZM9.75 15.0625L13 12.5312L16.25 15.0625L15 11.0625L18.0625 8.5H14.3125L13 4.6875L11.6875 8.5H7.9375L11 11.0625L9.75 15.0625Z" fill="#FFF4E6"/>
</svg>
