<svg width="17" height="17" viewBox="0 0 17 17" fill="none" xmlns="http://www.w3.org/2000/svg">
<path d="M17 0V3.97218L8.08623 12.886L9.7886 14.5883L8.81919 15.5577L6.64395 13.3825L3.28651 16.7399C3.11312 16.9133 2.92791 17 2.73088 17C2.53384 17 2.34863 16.9133 2.17524 16.7399L0.260082 14.8248C0.0866947 14.6514 0 14.4662 0 14.2691C0 14.0721 0.0866947 13.8869 0.260082 13.7135L3.61753 10.3561L1.44228 8.18081L2.41168 7.2114L4.11405 8.91377L13.0278 0H17ZM15.5814 1.41864H13.5243L5.13074 9.81224L7.18776 11.8693L15.5814 3.47566V1.41864ZM4.63421 11.3491L1.70236 14.2809L2.71905 15.2976L5.6509 12.3658L4.63421 11.3491ZM4.63421 11.3491L5.6509 12.3658L4.63421 11.3491Z" fill="white"/>
</svg>
