<svg width="32" height="30" viewBox="0 0 32 30" fill="none" xmlns="http://www.w3.org/2000/svg">
<path d="M3.76308 13.8158C2.76308 13.8158 1.92098 13.4737 1.23677 12.7895C0.552555 12.1053 0.210449 11.2632 0.210449 10.2632C0.210449 9.26316 0.552555 8.42105 1.23677 7.73684C1.92098 7.05263 2.76308 6.71053 3.76308 6.71053C4.76308 6.71053 5.60519 7.05263 6.2894 7.73684C6.97361 8.42105 7.31571 9.26316 7.31571 10.2632C7.31571 11.2632 6.97361 12.1053 6.2894 12.7895C5.60519 13.4737 4.76308 13.8158 3.76308 13.8158ZM11.0657 7.10526C10.0657 7.10526 9.22361 6.76316 8.5394 6.07895C7.85519 5.39474 7.51308 4.55263 7.51308 3.55263C7.51308 2.55263 7.85519 1.71053 8.5394 1.02632C9.22361 0.342105 10.0657 0 11.0657 0C12.0657 0 12.9078 0.342105 13.592 1.02632C14.2762 1.71053 14.6183 2.55263 14.6183 3.55263C14.6183 4.55263 14.2762 5.39474 13.592 6.07895C12.9078 6.76316 12.0657 7.10526 11.0657 7.10526ZM20.9341 7.10526C19.9341 7.10526 19.092 6.76316 18.4078 6.07895C17.7236 5.39474 17.3815 4.55263 17.3815 3.55263C17.3815 2.55263 17.7236 1.71053 18.4078 1.02632C19.092 0.342105 19.9341 0 20.9341 0C21.9341 0 22.7762 0.342105 23.4605 1.02632C24.1447 1.71053 24.4868 2.55263 24.4868 3.55263C24.4868 4.55263 24.1447 5.39474 23.4605 6.07895C22.7762 6.76316 21.9341 7.10526 20.9341 7.10526ZM28.2368 13.8158C27.2368 13.8158 26.3947 13.4737 25.7104 12.7895C25.0262 12.1053 24.6841 11.2632 24.6841 10.2632C24.6841 9.34211 25.0262 8.51974 25.7104 7.79605C26.3947 7.07237 27.2368 6.71053 28.2368 6.71053C29.2368 6.71053 30.0789 7.05263 30.7631 7.73684C31.4473 8.42105 31.7894 9.26316 31.7894 10.2632C31.7894 11.2632 31.4473 12.1053 30.7631 12.7895C30.0789 13.4737 29.2368 13.8158 28.2368 13.8158ZM7.55256 30C6.44729 30 5.5394 29.5855 4.82887 28.7566C4.11834 27.9276 3.76308 26.9474 3.76308 25.8158C3.76308 24.7105 4.09861 23.7303 4.76966 22.875C5.44071 22.0197 6.15782 21.1974 6.92098 20.4079C7.49992 19.8289 8.0394 19.2171 8.5394 18.5724C9.0394 17.9276 9.51308 17.2632 9.96045 16.5789C10.7236 15.4211 11.5789 14.3421 12.5262 13.3421C13.4736 12.3421 14.6315 11.8421 15.9999 11.8421C17.3683 11.8421 18.5328 12.3421 19.4933 13.3421C20.4539 14.3421 21.3157 15.4342 22.0789 16.6184C22.5262 17.3026 22.9933 17.9605 23.4802 18.5921C23.967 19.2237 24.4999 19.8289 25.0789 20.4079C25.842 21.1974 26.5591 22.0197 27.2302 22.875C27.9012 23.7303 28.2368 24.7105 28.2368 25.8158C28.2368 26.9474 27.8815 27.9276 27.171 28.7566C26.4605 29.5855 25.5526 30 24.4473 30C23.0262 30 21.6183 29.8816 20.2236 29.6447C18.8289 29.4079 17.421 29.2895 15.9999 29.2895C14.5789 29.2895 13.171 29.4079 11.7762 29.6447C10.3815 29.8816 8.97361 30 7.55256 30Z" fill="white"/>
</svg>
