<svg width="25" height="20" viewBox="0 0 25 20" fill="none" xmlns="http://www.w3.org/2000/svg">
<path d="M11.6562 16.4375H13.5312V15.0312H15.0312C15.3438 15.0312 15.599 14.9063 15.7969 14.6562C15.9948 14.4062 16.0938 14.125 16.0938 13.8125V10.2188C16.0938 9.88542 15.9948 9.59896 15.7969 9.35938C15.599 9.11979 15.3438 9 15.0312 9H10.7812V6.84375H16.0938V4.96875H13.5312V3.5625H11.6562V4.96875H10.125C9.8125 4.96875 9.53125 5.09375 9.28125 5.34375C9.03125 5.59375 8.90625 5.88542 8.90625 6.21875V9.78125C8.90625 10.1146 9.03125 10.3802 9.28125 10.5781C9.53125 10.776 9.8125 10.875 10.125 10.875H14.2188V13.1562H8.90625V15.0312H11.6562V16.4375ZM1.875 20C1.375 20 0.9375 19.8125 0.5625 19.4375C0.1875 19.0625 0 18.625 0 18.125V1.875C0 1.375 0.1875 0.9375 0.5625 0.5625C0.9375 0.1875 1.375 0 1.875 0H23.125C23.625 0 24.0625 0.1875 24.4375 0.5625C24.8125 0.9375 25 1.375 25 1.875V18.125C25 18.625 24.8125 19.0625 24.4375 19.4375C24.0625 19.8125 23.625 20 23.125 20H1.875ZM1.875 18.125V1.875V18.125ZM1.875 18.125H23.125V1.875H1.875V18.125Z" fill="#F0E6D2"/>
</svg>
