<svg width="12" height="19" viewBox="0 0 12 19" fill="none" xmlns="http://www.w3.org/2000/svg">
<path d="M5.20617 18.5V16.3824H3.08852V14.7941H5.20617V12.0941C3.75911 11.9 2.55911 11.2515 1.60617 10.1485C0.653228 9.04559 0.176758 7.76177 0.176758 6.29706C0.176758 4.69118 0.745876 3.32353 1.88411 2.19412C3.02235 1.06471 4.39441 0.5 6.00029 0.5C7.60617 0.5 8.97823 1.06471 10.1165 2.19412C11.2547 3.32353 11.8238 4.69118 11.8238 6.29706C11.8238 7.76177 11.3473 9.04559 10.3944 10.1485C9.44146 11.2515 8.24146 11.9 6.79441 12.0941V14.7941H8.91205V16.3824H6.79441V18.5H5.20617ZM6.00029 10.5588C7.16499 10.5588 8.16205 10.1441 8.99146 9.31471C9.82088 8.48529 10.2356 7.48824 10.2356 6.32353C10.2356 5.15882 9.82088 4.16177 8.99146 3.33235C8.16205 2.50294 7.16499 2.08824 6.00029 2.08824C4.83558 2.08824 3.83852 2.50294 3.00911 3.33235C2.1797 4.16177 1.76499 5.15882 1.76499 6.32353C1.76499 7.48824 2.1797 8.48529 3.00911 9.31471C3.83852 10.1441 4.83558 10.5588 6.00029 10.5588Z" fill="#EB4968"/>
</svg>
