<svg width="26" height="21" viewBox="0 0 26 21" fill="none" xmlns="http://www.w3.org/2000/svg">
<path d="M2.71564 7.03987C3.03764 7.26709 4.00828 7.94194 5.6276 9.06408C7.24696 10.1862 8.48751 11.0502 9.34928 11.6562C9.44396 11.7226 9.64512 11.867 9.95284 12.0895C10.2606 12.3122 10.5163 12.4922 10.7198 12.6294C10.9235 12.7667 11.1697 12.9206 11.4586 13.091C11.7475 13.2613 12.0198 13.3893 12.2755 13.4741C12.5312 13.5596 12.7679 13.6019 12.9857 13.6019H13H13.0143C13.2321 13.6019 13.4689 13.5595 13.7246 13.4741C13.9802 13.3893 14.2528 13.2611 14.5414 13.091C14.8301 12.9204 15.0763 12.7666 15.28 12.6294C15.4836 12.4922 15.7391 12.3122 16.047 12.0895C16.3547 11.8668 16.5561 11.7226 16.6508 11.6562C17.5218 11.0502 19.738 9.51131 23.2985 7.03957C23.9898 6.55682 24.5673 5.9743 25.0313 5.29244C25.4956 4.61087 25.7275 3.89586 25.7275 3.14783C25.7275 2.52273 25.5025 1.98763 25.0526 1.54259C24.6028 1.09745 24.07 0.875 23.4547 0.875H2.54514C1.816 0.875 1.25489 1.12118 0.861887 1.61354C0.468936 2.10599 0.272461 2.72154 0.272461 3.46013C0.272461 4.05672 0.532969 4.70321 1.05374 5.39921C1.57445 6.09525 2.1286 6.64219 2.71564 7.03987Z" fill="white"/>
<path d="M24.3068 8.55926C21.201 10.6614 18.8427 12.2951 17.2331 13.46C16.6933 13.8576 16.2554 14.1679 15.9191 14.3903C15.5829 14.6129 15.1356 14.8401 14.5768 15.072C14.0182 15.3043 13.4976 15.4201 13.0145 15.4201H13H12.9857C12.5028 15.4201 11.9819 15.3043 11.4232 15.072C10.8646 14.8401 10.4171 14.6129 10.0809 14.3903C9.74482 14.1679 9.30679 13.8576 8.76707 13.46C7.48856 12.5225 5.13534 10.8888 1.70729 8.55926C1.16737 8.19964 0.689144 7.78743 0.272461 7.32349V18.6018C0.272461 19.2272 0.494907 19.762 0.940049 20.2071C1.38509 20.6523 1.92024 20.8749 2.54529 20.8749H23.4549C24.0798 20.8749 24.6149 20.6523 25.0599 20.2071C25.5052 19.7618 25.7275 19.2272 25.7275 18.6018V7.32349C25.3203 7.77783 24.8469 8.19004 24.3068 8.55926Z" fill="white"/>
</svg>
