<svg width="25" height="18" viewBox="0 0 25 18" fill="none" xmlns="http://www.w3.org/2000/svg">
<path d="M19.6023 11.0435V7.27536H15.9091V5.53623H19.6023V1.76812H21.3068V5.53623H25V7.27536H21.3068V11.0435H19.6023ZM9.09091 8.69565C7.84091 8.69565 6.81818 8.28986 6.02273 7.47826C5.22727 6.66667 4.82955 5.62319 4.82955 4.34783C4.82955 3.07246 5.22727 2.02899 6.02273 1.21739C6.81818 0.405797 7.84091 0 9.09091 0C10.3409 0 11.3636 0.405797 12.1591 1.21739C12.9545 2.02899 13.3523 3.07246 13.3523 4.34783C13.3523 5.62319 12.9545 6.66667 12.1591 7.47826C11.3636 8.28986 10.3409 8.69565 9.09091 8.69565ZM0 18V15.2754C0 14.599 0.170455 13.9855 0.511364 13.4348C0.852273 12.8841 1.32576 12.4734 1.93182 12.2029C3.35227 11.5652 4.61648 11.1159 5.72443 10.8551C6.83239 10.5942 7.95455 10.4638 9.09091 10.4638C10.2273 10.4638 11.3494 10.5942 12.4574 10.8551C13.5653 11.1159 14.8201 11.5652 16.2216 12.2029C16.8277 12.4928 17.3059 12.9082 17.6562 13.4493C18.0066 13.9903 18.1818 14.599 18.1818 15.2754V18H0ZM1.70455 16.2609H16.4773V15.2754C16.4773 14.9662 16.4015 14.6715 16.25 14.3913C16.0985 14.1111 15.8617 13.9034 15.5398 13.7681C14.214 13.1111 13.0824 12.686 12.1449 12.4928C11.2074 12.2995 10.1894 12.2029 9.09091 12.2029C7.99242 12.2029 6.97443 12.3043 6.03693 12.5072C5.09943 12.7101 3.95833 13.1304 2.61364 13.7681C2.32955 13.9034 2.10701 14.1111 1.94602 14.3913C1.78504 14.6715 1.70455 14.9662 1.70455 15.2754V16.2609ZM9.09091 6.95652C9.82955 6.95652 10.4403 6.71014 10.9233 6.21739C11.4062 5.72464 11.6477 5.10145 11.6477 4.34783C11.6477 3.5942 11.4062 2.97101 10.9233 2.47826C10.4403 1.98551 9.82955 1.73913 9.09091 1.73913C8.35227 1.73913 7.74148 1.98551 7.25852 2.47826C6.77557 2.97101 6.53409 3.5942 6.53409 4.34783C6.53409 5.10145 6.77557 5.72464 7.25852 6.21739C7.74148 6.71014 8.35227 6.95652 9.09091 6.95652Z" fill="white"/>
</svg>
