<svg width="24" height="20" viewBox="0 0 24 20" fill="none" xmlns="http://www.w3.org/2000/svg">
<path d="M3.5138 20L2.27056 18.7568L10.3787 10.6486L14.703 15L22.757 5.97297L23.8922 7.08108L14.703 17.4324L10.3787 13.1351L3.5138 20ZM2.73002 11.7027L1.89218 9.91892L0.108398 9.08108L1.89218 8.24324L2.73002 6.45946L3.56786 8.24324L5.35164 9.08108L3.56786 9.91892L2.73002 11.7027ZM15.2435 9.54054L14.4057 7.75676L12.6219 6.91892L14.4057 6.08108L15.2435 4.2973L16.0814 6.08108L17.8652 6.91892L16.0814 7.75676L15.2435 9.54054ZM7.94624 6.27027L6.94624 4.13513L4.8111 3.13514L6.94624 2.13513L7.94624 0L8.94624 2.13513L11.0814 3.13514L8.94624 4.13513L7.94624 6.27027Z" fill="#FFF4E6"/>
</svg>
