<svg width="30" height="20" viewBox="0 0 30 20" fill="none" xmlns="http://www.w3.org/2000/svg">
<path d="M0.764648 20V16.9726C0.764648 16.2211 0.957885 15.5395 1.34436 14.9275C1.73083 14.3156 2.2676 13.8594 2.95466 13.5588C4.52203 12.8717 5.93373 12.3779 7.18977 12.0773C8.44581 11.7767 9.73942 11.6264 11.0706 11.6264C12.4018 11.6264 13.69 11.7767 14.9353 12.0773C16.1806 12.3779 17.587 12.8717 19.1543 13.5588C19.8414 13.8594 20.3835 14.3156 20.7808 14.9275C21.178 15.5395 21.3766 16.2211 21.3766 16.9726V20H0.764648ZM19.573 11.5298C21.0545 11.7016 22.4501 11.9538 23.7598 12.2866C25.0695 12.6194 26.1323 13.0005 26.9482 13.43C27.6568 13.8379 28.215 14.3425 28.6229 14.9436C29.0309 15.5448 29.2349 16.2211 29.2349 16.9726V20H23.3089V16.9726C23.3089 15.62 22.9654 14.5089 22.2783 13.6393C21.5913 12.7697 20.6895 12.0666 19.573 11.5298ZM11.0706 9.66184C9.65354 9.66184 8.49412 9.21095 7.59235 8.30918C6.69058 7.40741 6.23969 6.24799 6.23969 4.83092C6.23969 3.41385 6.69058 2.25443 7.59235 1.35266C8.49412 0.450886 9.65354 0 11.0706 0C12.4877 0 13.6471 0.450886 14.5489 1.35266C15.4506 2.25443 15.9015 3.41385 15.9015 4.83092C15.9015 6.24799 15.4506 7.40741 14.5489 8.30918C13.6471 9.21095 12.4877 9.66184 11.0706 9.66184ZM22.6648 4.83092C22.6648 6.24799 22.2139 7.40741 21.3122 8.30918C20.4104 9.21095 19.251 9.66184 17.8339 9.66184C17.5977 9.66184 17.3347 9.64573 17.0448 9.61353C16.755 9.58132 16.492 9.52228 16.2558 9.43639C16.7711 8.89962 17.1629 8.2394 17.4313 7.45572C17.6997 6.67203 17.8339 5.7971 17.8339 4.83092C17.8339 3.86474 17.6997 3.01127 17.4313 2.27053C17.1629 1.52979 16.7711 0.848095 16.2558 0.225443C16.492 0.161031 16.755 0.107354 17.0448 0.0644125C17.3347 0.021471 17.5977 0 17.8339 0C19.251 0 20.4104 0.450886 21.3122 1.35266C22.2139 2.25443 22.6648 3.41385 22.6648 4.83092ZM2.69702 18.0676H19.4442V16.9726C19.4442 16.6291 19.3422 16.2963 19.1382 15.9742C18.9343 15.6522 18.682 15.4267 18.3814 15.2979C16.8355 14.6108 15.5365 14.1492 14.4845 13.913C13.4324 13.6769 12.2944 13.5588 11.0706 13.5588C9.84678 13.5588 8.70346 13.6769 7.64066 13.913C6.57785 14.1492 5.27351 14.6108 3.72761 15.2979C3.42702 15.4267 3.18011 15.6522 2.98687 15.9742C2.79363 16.2963 2.69702 16.6291 2.69702 16.9726V18.0676ZM11.0706 7.72947C11.908 7.72947 12.6004 7.45572 13.1479 6.90821C13.6954 6.36071 13.9692 5.66828 13.9692 4.83092C13.9692 3.99356 13.6954 3.30113 13.1479 2.75362C12.6004 2.20612 11.908 1.93237 11.0706 1.93237C10.2332 1.93237 9.54082 2.20612 8.99331 2.75362C8.44581 3.30113 8.17206 3.99356 8.17206 4.83092C8.17206 5.66828 8.44581 6.36071 8.99331 6.90821C9.54082 7.45572 10.2332 7.72947 11.0706 7.72947Z" fill="#FFF4E6"/>
</svg>
