<svg width="20" height="20" viewBox="0 0 20 20" fill="none" xmlns="http://www.w3.org/2000/svg">
<path d="M5 16.3889C5.38889 16.3889 5.71759 16.2546 5.98611 15.9861C6.25463 15.7176 6.38889 15.3889 6.38889 15C6.38889 14.6111 6.25463 14.2824 5.98611 14.0139C5.71759 13.7454 5.38889 13.6111 5 13.6111C4.61111 13.6111 4.28241 13.7454 4.01389 14.0139C3.74537 14.2824 3.61111 14.6111 3.61111 15C3.61111 15.3889 3.74537 15.7176 4.01389 15.9861C4.28241 16.2546 4.61111 16.3889 5 16.3889ZM5 6.38889C5.38889 6.38889 5.71759 6.25463 5.98611 5.98611C6.25463 5.71759 6.38889 5.38889 6.38889 5C6.38889 4.61111 6.25463 4.28241 5.98611 4.01389C5.71759 3.74537 5.38889 3.61111 5 3.61111C4.61111 3.61111 4.28241 3.74537 4.01389 4.01389C3.74537 4.28241 3.61111 4.61111 3.61111 5C3.61111 5.38889 3.74537 5.71759 4.01389 5.98611C4.28241 6.25463 4.61111 6.38889 5 6.38889ZM10 11.3889C10.3889 11.3889 10.7176 11.2546 10.9861 10.9861C11.2546 10.7176 11.3889 10.3889 11.3889 10C11.3889 9.61111 11.2546 9.28241 10.9861 9.01389C10.7176 8.74537 10.3889 8.61111 10 8.61111C9.61111 8.61111 9.28241 8.74537 9.01389 9.01389C8.74537 9.28241 8.61111 9.61111 8.61111 10C8.61111 10.3889 8.74537 10.7176 9.01389 10.9861C9.28241 11.2546 9.61111 11.3889 10 11.3889ZM15 16.3889C15.3889 16.3889 15.7176 16.2546 15.9861 15.9861C16.2546 15.7176 16.3889 15.3889 16.3889 15C16.3889 14.6111 16.2546 14.2824 15.9861 14.0139C15.7176 13.7454 15.3889 13.6111 15 13.6111C14.6111 13.6111 14.2824 13.7454 14.0139 14.0139C13.7454 14.2824 13.6111 14.6111 13.6111 15C13.6111 15.3889 13.7454 15.7176 14.0139 15.9861C14.2824 16.2546 14.6111 16.3889 15 16.3889ZM15 6.38889C15.3889 6.38889 15.7176 6.25463 15.9861 5.98611C16.2546 5.71759 16.3889 5.38889 16.3889 5C16.3889 4.61111 16.2546 4.28241 15.9861 4.01389C15.7176 3.74537 15.3889 3.61111 15 3.61111C14.6111 3.61111 14.2824 3.74537 14.0139 4.01389C13.7454 4.28241 13.6111 4.61111 13.6111 5C13.6111 5.38889 13.7454 5.71759 14.0139 5.98611C14.2824 6.25463 14.6111 6.38889 15 6.38889ZM1.66667 20C1.22222 20 0.833333 19.8333 0.5 19.5C0.166667 19.1667 0 18.7778 0 18.3333V1.66667C0 1.22222 0.166667 0.833333 0.5 0.5C0.833333 0.166667 1.22222 0 1.66667 0H18.3333C18.7778 0 19.1667 0.166667 19.5 0.5C19.8333 0.833333 20 1.22222 20 1.66667V18.3333C20 18.7778 19.8333 19.1667 19.5 19.5C19.1667 19.8333 18.7778 20 18.3333 20H1.66667ZM1.66667 18.3333H18.3333V1.66667H1.66667V18.3333Z" fill="#F0E6D2"/>
</svg>
