<svg width="18" height="18" viewBox="0 0 18 18" fill="none" xmlns="http://www.w3.org/2000/svg">
<path d="M1.35 9C1.35 9.915 1.515 10.7962 1.845 11.6437C2.175 12.4913 2.6175 13.2525 3.1725 13.9275L13.9275 3.1725C13.2375 2.5875 12.4725 2.1375 11.6325 1.8225C10.7925 1.5075 9.915 1.35 9 1.35C6.87 1.35 5.0625 2.0925 3.5775 3.5775C2.0925 5.0625 1.35 6.87 1.35 9ZM4.0725 14.85C4.7475 15.435 5.50875 15.8812 6.35625 16.1887C7.20375 16.4962 8.085 16.65 9 16.65C11.13 16.65 12.9375 15.9075 14.4225 14.4225C15.9075 12.9375 16.65 11.13 16.65 9C16.65 8.085 16.4925 7.2075 16.1775 6.3675C15.8625 5.5275 15.42 4.7625 14.85 4.0725L4.0725 14.85ZM0 9C0 7.755 0.23625 6.585 0.70875 5.49C1.18125 4.395 1.8225 3.4425 2.6325 2.6325C3.4425 1.8225 4.395 1.18125 5.49 0.70875C6.585 0.23625 7.755 0 9 0C10.245 0 11.415 0.23625 12.51 0.70875C13.605 1.18125 14.5575 1.8225 15.3675 2.6325C16.1775 3.4425 16.8187 4.395 17.2912 5.49C17.7638 6.585 18 7.755 18 9C18 10.245 17.7638 11.415 17.2912 12.51C16.8187 13.605 16.1775 14.5575 15.3675 15.3675C14.5575 16.1775 13.605 16.8187 12.51 17.2912C11.415 17.7638 10.245 18 9 18C7.755 18 6.585 17.7638 5.49 17.2912C4.395 16.8187 3.4425 16.1775 2.6325 15.3675C1.8225 14.5575 1.18125 13.605 0.70875 12.51C0.23625 11.415 0 10.245 0 9Z" fill="white"/>
</svg>
