<svg width="19" height="20" viewBox="0 0 19 20" fill="none" xmlns="http://www.w3.org/2000/svg">
<path d="M4.125 16H10.95V14.5H4.125V16ZM4.125 11.75H14.125V10.25H4.125V11.75ZM4.125 7.5H14.125V6H4.125V7.5ZM1.625 18.5H16.625V3.5H1.625V18.5ZM1.625 3.5V18.5V3.5ZM1.625 20C1.20833 20 0.854167 19.8542 0.5625 19.5625C0.270833 19.2708 0.125 18.9167 0.125 18.5V3.5C0.125 3.08333 0.270833 2.72917 0.5625 2.4375C0.854167 2.14583 1.20833 2 1.625 2H6.75C6.83333 1.41667 7.1 0.9375 7.55 0.5625C8 0.1875 8.525 0 9.125 0C9.725 0 10.25 0.1875 10.7 0.5625C11.15 0.9375 11.4167 1.41667 11.5 2H16.625C17.0417 2 17.3958 2.14583 17.6875 2.4375C17.9792 2.72917 18.125 3.08333 18.125 3.5V18.5C18.125 18.9167 17.9792 19.2708 17.6875 19.5625C17.3958 19.8542 17.0417 20 16.625 20H1.625ZM9.125 3.075C9.35833 3.075 9.5625 2.9875 9.7375 2.8125C9.9125 2.6375 10 2.43333 10 2.2C10 1.96667 9.9125 1.7625 9.7375 1.5875C9.5625 1.4125 9.35833 1.325 9.125 1.325C8.89167 1.325 8.6875 1.4125 8.5125 1.5875C8.3375 1.7625 8.25 1.96667 8.25 2.2C8.25 2.43333 8.3375 2.6375 8.5125 2.8125C8.6875 2.9875 8.89167 3.075 9.125 3.075Z" fill="#F0E6D2"/>
</svg>
