<svg width="22" height="25" viewBox="0 0 22 25" fill="none" xmlns="http://www.w3.org/2000/svg">
<path d="M12.7753 20.8903L12.7754 20.8907C12.8088 21.0358 12.8087 21.1865 12.7754 21.3316C12.7421 21.4766 12.6764 21.612 12.5835 21.7277C12.4907 21.8434 12.3731 21.9365 12.2397 22.0004C12.1064 22.0642 11.9606 22.0973 11.8131 22.0973H11.8128H9.54402C9.54398 22.0973 9.54394 22.0973 9.5439 22.0973C9.39621 22.0973 9.25023 22.0642 9.11679 22.0003C8.98329 21.9363 8.86562 21.8431 8.77277 21.7271C8.67988 21.6111 8.6143 21.4754 8.58122 21.3302C8.54815 21.185 8.54846 21.0342 8.58214 20.8891L8.58197 20.8898L12.7753 20.8903ZM12.7753 20.8903L12.243 18.5786M12.7753 20.8903L11.3877 18.2065M9.11586 18.5783L8.58222 20.8888L9.97149 18.2065M9.11586 18.5783C9.29108 18.7086 9.48314 18.8172 9.68808 18.9009L9.97149 18.2065M9.11586 18.5783L9.24073 18.0377L9.97149 18.2065M9.11586 18.5783C8.81297 18.3532 8.56036 18.0635 8.3784 17.7271C8.09112 17.1959 7.99813 16.5816 8.11581 15.9893C8.23348 15.3971 8.55422 14.8648 9.02203 14.4828C9.48974 14.1009 10.0756 13.8926 10.6796 13.8926C11.2836 13.8926 11.8695 14.1009 12.3372 14.4828C12.805 14.8648 13.1257 15.3971 13.2434 15.9893C13.3611 16.5816 13.2681 17.1959 12.9808 17.7271C12.7988 18.0636 12.5461 18.3534 12.243 18.5786M9.97149 18.2065C9.57228 18.0436 9.24238 17.748 9.0381 17.3703C8.83383 16.9926 8.76784 16.5561 8.85143 16.1355C8.93501 15.7148 9.16298 15.336 9.4964 15.0637C9.82981 14.7915 10.248 14.6426 10.6796 14.6426C11.1112 14.6426 11.5294 14.7915 11.8628 15.0637C12.1962 15.336 12.4242 15.7148 12.5078 16.1355C12.5914 16.5561 12.5254 16.9926 12.3211 17.3703C12.1168 17.748 11.7869 18.0436 11.3877 18.2065M12.243 18.5786L12.1186 18.0382L11.3877 18.2065M12.243 18.5786C12.0679 18.7087 11.8759 18.8173 11.6711 18.9009L11.3877 18.2065M6.25564 11.2752L6.44686 11.7397H6.94917H19.9722C20.0559 11.7397 20.1386 11.7561 20.2156 11.7878C20.2927 11.8195 20.3623 11.8658 20.4208 11.9239C20.4793 11.982 20.5254 12.0506 20.5567 12.1259C20.5881 12.2011 20.6042 12.2816 20.6042 12.3627V23.627V23.6273C20.6042 23.7084 20.5881 23.7888 20.5568 23.864C20.5255 23.9392 20.4794 24.0079 20.4209 24.0659C20.3625 24.124 20.2928 24.1703 20.2158 24.202C20.1388 24.2337 20.0561 24.25 19.9725 24.25H19.9722H1.38198C1.2128 24.25 1.05152 24.1832 0.933374 24.0658C0.815389 23.9486 0.75 23.7906 0.75 23.627L0.75 12.363C0.75 12.3629 0.75 12.3629 0.75 12.3628C0.75 12.3628 0.75 12.3627 0.75 12.3627C0.750133 12.1991 0.815564 12.0412 0.93352 11.924C1.05164 11.8067 1.21284 11.7398 1.38198 11.7397C1.38207 11.7397 1.38216 11.7397 1.38225 11.7397H2.62142H3.74497L3.31408 10.702L2.82812 9.5318C2.51613 8.78014 2.35628 7.97496 2.35758 7.16218C2.35887 6.34941 2.52129 5.54473 2.83568 4.79405C3.15008 4.04336 3.61036 3.36123 4.19048 2.78674C4.77061 2.21223 5.45922 1.75663 6.21712 1.44617L6.21791 1.44585L6.77119 1.21848C6.77132 1.21842 6.77145 1.21837 6.77158 1.21832C7.52929 0.907912 8.34129 0.74874 9.16118 0.750008C9.9812 0.751275 10.7928 0.913012 11.5497 1.22586C12.3065 1.53871 12.9936 1.99647 13.5718 2.57278C14.15 3.14907 14.6081 3.83261 14.92 4.58424L14.9202 4.58474L15.8306 6.77391C15.2286 7.38168 14.3977 7.72033 13.5305 7.69719L13.5234 7.697L12.8493 6.23283C11.9418 4.04463 9.61134 2.74525 7.46623 3.62371L7.46601 3.6238C5.32341 4.50202 4.53713 7.10075 5.44529 9.30674L6.25564 11.2752Z" stroke="#F0E6D2" stroke-opacity="0.5" stroke-width="1.5"/>
</svg>
