<svg width="21" height="25" viewBox="0 0 21 25" fill="none" xmlns="http://www.w3.org/2000/svg">
<path d="M19.6409 10.981H17.6697V6.95093C17.67 5.10778 16.9461 3.34001 15.6572 2.03647C14.3684 0.732934 12.6202 0.000398384 10.7972 0H10.2028C8.37981 0.000398384 6.6316 0.732934 5.34276 2.03647C4.05393 3.34001 3.33002 5.10778 3.33028 6.95093V10.9825H1.35906C0.99887 10.9825 0.653413 11.127 0.398583 11.3844C0.143754 11.6418 0.00039379 11.9909 0 12.355L0 23.6259C0.000131271 23.9903 0.143359 24.3397 0.398203 24.5974C0.653048 24.8551 0.998653 24.9999 1.35906 25H19.6409C20.0013 24.9999 20.347 24.8551 20.6018 24.5974C20.8566 24.3397 20.9999 23.9903 21 23.6259V12.355C21 11.9906 20.8568 11.6411 20.6019 11.3834C20.3471 11.1257 20.0014 10.981 19.6409 10.981ZM7.27323 7.72959C7.27917 5.6635 8.73085 3.98898 10.5149 3.98898C12.2979 3.98898 13.7416 5.6635 13.7342 7.72959L13.7248 10.981H7.26432L7.27323 7.72959ZM11.8447 21.0576C11.8525 21.0922 11.8525 21.1281 11.8447 21.1627C11.8369 21.1974 11.8215 21.2297 11.7996 21.2575C11.7777 21.2853 11.7499 21.3077 11.7183 21.3231C11.6866 21.3385 11.652 21.3465 11.6169 21.3465H9.38314C9.34803 21.3465 9.31337 21.3385 9.28174 21.3231C9.25011 21.3077 9.22232 21.2853 9.20043 21.2575C9.17854 21.2297 9.16312 21.1974 9.15531 21.1627C9.1475 21.1281 9.1475 21.0922 9.15531 21.0576L9.80363 18.2033C9.41104 18.0402 9.08661 17.7445 8.88572 17.3665C8.68483 16.9885 8.61995 16.5517 8.70215 16.1307C8.78434 15.7097 9.00853 15.3306 9.33642 15.0581C9.66431 14.7857 10.0756 14.6367 10.5 14.6367C10.9244 14.6367 11.3357 14.7857 11.6636 15.0581C11.9915 15.3306 12.2157 15.7097 12.2979 16.1307C12.38 16.5517 12.3152 16.9885 12.1143 17.3665C11.9134 17.7445 11.589 18.0402 11.1964 18.2033L11.8447 21.0576Z" fill="#F0E6D2" fill-opacity="0.5"/>
<path d="M17.1697 11.481V10.981V6.95093V6.95085C17.17 5.23855 16.4974 3.59736 15.3017 2.38801C14.1062 1.17888 12.4858 0.500398 10.7972 0.5L17.1697 11.481ZM17.1697 11.481H17.6697M17.1697 11.481H17.6697M17.6697 11.481H19.6409M17.6697 11.481H19.6409M3.83028 6.95086V6.95093V10.9825V11.4825H3.33028H1.35906C1.13316 11.4825 0.915389 11.5731 0.75388 11.7362C0.592245 11.8994 0.500316 12.122 0.5 12.3553L0.5 23.6258C0.5 23.6258 0.5 23.6259 0.5 23.6259C0.500131 23.8595 0.591997 24.0823 0.753693 24.2458C0.915201 24.4091 1.13304 24.4999 1.35906 24.5L3.83028 6.95086ZM3.83028 6.95086C3.83004 5.23855 4.50261 3.59736 5.69832 2.38801C6.89382 1.17888 8.51423 0.500398 10.2028 0.5C10.2029 0.5 10.2029 0.5 10.2029 0.5M3.83028 6.95086L10.2029 0.5M14.2342 7.73139C14.2424 5.45953 12.6408 3.48898 10.5149 3.48898C8.38936 3.48898 6.77977 5.45738 6.77323 7.72816V7.72822L6.76432 10.9796L6.76294 11.481H7.26432H13.7248H14.2233L14.2248 10.9824L14.2342 7.73139ZM14.2342 7.73139L13.7342 7.72959M14.2342 7.73139L14.2342 7.73104L13.7342 7.72959M13.7342 7.72959L13.7248 10.981H7.76432L7.76431 10.9823L7.26432 10.981V10.481H7.26569L7.27323 7.72959C7.27917 5.6635 8.73085 3.98898 10.5149 3.98898C12.2979 3.98898 13.7416 5.6635 13.7342 7.72959ZM19.6409 11.481C19.867 11.481 20.0849 11.5717 20.2465 11.735C20.4082 11.8985 20.5 12.1215 20.5 12.355V23.6258C20.5 23.6258 20.5 23.6259 20.5 23.6259C20.4999 23.8595 20.408 24.0823 20.2463 24.2458C20.0848 24.4091 19.867 24.4999 19.6409 24.5C19.6409 24.5 19.6408 24.5 19.6408 24.5M19.6409 11.481L19.6408 24.5M10.2029 0.5H10.7971H10.2029ZM19.6408 24.5H1.35924H19.6408ZM12.3324 20.9475L12.3323 20.9468L11.7683 18.4641C12.0973 18.2491 12.3689 17.9528 12.5558 17.6011C12.8106 17.1216 12.8927 16.5681 12.7886 16.0349C12.6845 15.5015 12.4002 15.0202 11.9831 14.6736C11.5659 14.3269 11.0417 14.1367 10.5 14.1367C9.95828 14.1367 9.43409 14.3269 9.01686 14.6736C8.59975 15.0202 8.31555 15.5015 8.21141 16.0349C8.10729 16.5681 8.18938 17.1216 8.4442 17.6011C8.63112 17.9528 8.90272 18.2491 9.23166 18.4641L8.66773 20.9468L8.66757 20.9475C8.64341 21.0546 8.64341 21.1657 8.66758 21.2728C8.69175 21.3799 8.73954 21.4805 8.80781 21.5671C8.87608 21.6537 8.96312 21.724 9.06273 21.7726C9.16239 21.8211 9.27185 21.8465 9.38295 21.8465H9.38314H11.6169H11.6171C11.7281 21.8465 11.8376 21.8211 11.9373 21.7726C12.0369 21.724 12.1239 21.6537 12.1922 21.5671C12.2604 21.4805 12.3083 21.3799 12.3324 21.2728C12.3566 21.1657 12.3566 21.0546 12.3324 20.9475Z" stroke="#F0E6D2" stroke-opacity="0.6"/>
</svg>
