<svg width="13" height="17" viewBox="0 0 13 17" fill="none" xmlns="http://www.w3.org/2000/svg">
<path d="M4.0625 13.175H8.9375V11.9H4.0625V13.175ZM5.89062 11.05H7.10938V9.1375H8.9375V7.8625H7.10938V5.95H5.89062V7.8625H4.0625V9.1375H5.89062V11.05ZM6.5 17C4.78021 17 3.26693 16.3731 1.96016 15.1194C0.653385 13.8656 0 12.1692 0 10.03C0 8.61333 0.538281 7.07271 1.61484 5.40813C2.69141 3.74354 4.31979 1.94083 6.5 0C8.68021 1.94083 10.3086 3.74354 11.3852 5.40813C12.4617 7.07271 13 8.61333 13 10.03C13 12.1692 12.3466 13.8656 11.0398 15.1194C9.73307 16.3731 8.21979 17 6.5 17ZM6.5 15.725C7.98958 15.725 9.24219 15.1867 10.2578 14.11C11.2734 13.0333 11.7812 11.6733 11.7812 10.03C11.7812 8.91083 11.331 7.63938 10.4305 6.21563C9.52995 4.79188 8.21979 3.28667 6.5 1.7C4.78021 3.28667 3.47005 4.79188 2.56953 6.21563C1.66901 7.63938 1.21875 8.91083 1.21875 10.03C1.21875 11.6733 1.72656 13.0333 2.74219 14.11C3.75781 15.1867 5.01042 15.725 6.5 15.725Z" fill="white"/>
</svg>
