<svg width="21" height="21" viewBox="0 0 21 21" fill="none" xmlns="http://www.w3.org/2000/svg">
<path d="M1.72748 20.625C0.964929 20.625 0.444166 20.224 0.165186 19.4219C-0.113795 18.6198 -0.0394 17.9705 0.38837 17.474L7.30708 9.45312V1.71875H5.85638C5.6332 1.71875 5.43791 1.63281 5.27052 1.46094C5.10314 1.28906 5.01944 1.08854 5.01944 0.859375C5.01944 0.630208 5.10314 0.429687 5.27052 0.257812C5.43791 0.0859374 5.6332 0 5.85638 0H14.7838C15.0069 0 15.2022 0.0859374 15.3696 0.257812C15.537 0.429687 15.6207 0.630208 15.6207 0.859375C15.6207 1.08854 15.537 1.28906 15.3696 1.46094C15.2022 1.63281 15.0069 1.71875 14.7838 1.71875H13.3331V9.45312L20.2518 17.474C20.6981 17.9896 20.7772 18.6437 20.4889 19.4362C20.2006 20.2287 19.6752 20.625 18.9127 20.625H1.72748ZM1.3927 18.9062H19.2474L11.6592 10.0833V1.71875H8.98096V10.0833L1.3927 18.9062Z" fill="#F0E6D2"/>
</svg>
