<svg width="22" height="20" viewBox="0 0 22 20" fill="none" xmlns="http://www.w3.org/2000/svg">
<path d="M10.9993 9.66184C9.58225 9.66184 8.42283 9.21095 7.52106 8.30918C6.61929 7.40741 6.1684 6.24799 6.1684 4.83092C6.1684 3.41385 6.61929 2.25443 7.52106 1.35266C8.42283 0.450886 9.58225 0 10.9993 0C12.4164 0 13.5758 0.450886 14.4776 1.35266C15.3794 2.25443 15.8302 3.41385 15.8302 4.83092C15.8302 6.24799 15.3794 7.40741 14.4776 8.30918C13.5758 9.21095 12.4164 9.66184 10.9993 9.66184ZM0.693359 20V16.9726C0.693359 16.1567 0.897331 15.4589 1.30528 14.8792C1.71322 14.2995 2.23925 13.8594 2.88338 13.5588C4.32192 12.9147 5.70141 12.4316 7.02186 12.1095C8.34231 11.7874 9.66813 11.6264 10.9993 11.6264C12.3305 11.6264 13.651 11.7928 14.9607 12.1256C16.2704 12.4584 17.6445 12.9361 19.0831 13.5588C19.7486 13.8594 20.2854 14.2995 20.6934 14.8792C21.1013 15.4589 21.3053 16.1567 21.3053 16.9726V20H0.693359ZM2.62573 18.0676H19.3729V16.9726C19.3729 16.6291 19.2709 16.3017 19.067 15.9903C18.863 15.679 18.6107 15.4482 18.3101 15.2979C16.936 14.6323 15.6799 14.1761 14.542 13.9291C13.404 13.6822 12.2232 13.5588 10.9993 13.5588C9.77549 13.5588 8.58386 13.6822 7.42444 13.9291C6.26502 14.1761 5.00898 14.6323 3.65632 15.2979C3.35573 15.4482 3.10882 15.679 2.91558 15.9903C2.72234 16.3017 2.62573 16.6291 2.62573 16.9726V18.0676ZM10.9993 7.72947C11.8367 7.72947 12.5291 7.45572 13.0766 6.90821C13.6241 6.36071 13.8979 5.66828 13.8979 4.83092C13.8979 3.99356 13.6241 3.30113 13.0766 2.75362C12.5291 2.20612 11.8367 1.93237 10.9993 1.93237C10.162 1.93237 9.46953 2.20612 8.92202 2.75362C8.37452 3.30113 8.10077 3.99356 8.10077 4.83092C8.10077 5.66828 8.37452 6.36071 8.92202 6.90821C9.46953 7.45572 10.162 7.72947 10.9993 7.72947Z" fill="#F0E6D2"/>
</svg>
