<svg width="13" height="13" viewBox="0 0 13 13" fill="none" xmlns="http://www.w3.org/2000/svg">
<path d="M6.06399 9.73004H7.03299V5.85404H6.06399V9.73004ZM6.50004 4.65894C6.65077 4.65894 6.77728 4.61049 6.87956 4.51359C6.98185 4.41669 7.03299 4.29287 7.03299 4.14214C7.03299 3.99141 6.98185 3.86221 6.87956 3.75454C6.77728 3.64687 6.65077 3.59304 6.50004 3.59304C6.34931 3.59304 6.2228 3.64687 6.12051 3.75454C6.01823 3.86221 5.96709 3.99141 5.96709 4.14214C5.96709 4.29287 6.01823 4.41669 6.12051 4.51359C6.2228 4.61049 6.34931 4.65894 6.50004 4.65894ZM6.50004 12.96C5.58487 12.96 4.73431 12.7958 3.94834 12.4675C3.16237 12.1391 2.47869 11.6842 1.89729 11.1028C1.31589 10.5214 0.860997 9.83771 0.532614 9.05174C0.204231 8.26577 0.0400391 7.41521 0.0400391 6.50004C0.0400391 5.59564 0.204231 4.75046 0.532614 3.96449C0.860997 3.17852 1.31589 2.49484 1.89729 1.91344C2.47869 1.33204 3.16237 0.874456 3.94834 0.540689C4.73431 0.206922 5.58487 0.0400391 6.50004 0.0400391C7.40444 0.0400391 8.24962 0.206922 9.03559 0.540689C9.82156 0.874456 10.5052 1.33204 11.0866 1.91344C11.668 2.49484 12.1256 3.17852 12.4594 3.96449C12.7932 4.75046 12.96 5.59564 12.96 6.50004C12.96 7.41521 12.7932 8.26577 12.4594 9.05174C12.1256 9.83771 11.668 10.5214 11.0866 11.1028C10.5052 11.6842 9.82156 12.1391 9.03559 12.4675C8.24962 12.7958 7.40444 12.96 6.50004 12.96ZM6.50004 11.991C8.00737 11.991 9.29937 11.4527 10.376 10.376C11.4527 9.29937 11.991 8.00737 11.991 6.50004C11.991 4.99271 11.4527 3.70071 10.376 2.62404C9.29937 1.54737 8.00737 1.00904 6.50004 1.00904C4.99271 1.00904 3.70071 1.54737 2.62404 2.62404C1.54737 3.70071 1.00904 4.99271 1.00904 6.50004C1.00904 8.00737 1.54737 9.29937 2.62404 10.376C3.70071 11.4527 4.99271 11.991 6.50004 11.991Z" fill="#45D2FF"/>
</svg>
