<svg width="26" height="30" viewBox="0 0 26 30" fill="none" xmlns="http://www.w3.org/2000/svg">
<path d="M17.0009 24.4995V25.4995C17.0009 25.7755 16.7769 25.9995 16.5009 25.9995C16.225 25.9995 16.001 25.7755 16.001 25.4995V24.4995H7.00098V25.8575C7.00098 26.487 7.51297 26.9995 8.14297 26.9995H17.859C18.489 26.9995 19.001 26.487 19.001 25.8575V24.4995H17.0009Z" fill="#FFF4E6"/>
<path d="M12.999 6.49951C11.3445 6.49951 9.99902 7.845 9.99902 9.49951C9.99902 11.154 11.3445 12.4995 12.999 12.4995C14.6535 12.4995 15.999 11.154 15.999 9.49951C15.999 7.845 14.6535 6.49951 12.999 6.49951ZM12.999 11.4995C11.896 11.4995 10.999 10.6025 10.999 9.49951C10.999 8.39654 11.8961 7.49953 12.999 7.49953C13.275 7.49953 13.499 7.72353 13.499 7.99951C13.499 8.27548 13.275 8.49949 12.999 8.49949C12.4475 8.49949 11.999 8.94796 11.999 9.49951C11.999 10.051 12.4475 10.4995 12.999 10.4995C13.5505 10.4995 13.999 10.051 13.999 9.49951C13.999 9.22353 14.223 8.99953 14.499 8.99953C14.775 8.99953 14.999 9.22353 14.999 9.49951C14.999 10.6025 14.102 11.4995 12.999 11.4995Z" fill="#FFF4E6"/>
<path d="M19.912 22.4995H6.08801C6.03949 22.4995 6 22.539 6 22.5875V23.4995H20V22.5875C20 22.5391 19.9605 22.4995 19.912 22.4995Z" fill="#FFF4E6"/>
<path d="M22.499 20.243C22.4885 19.203 22.412 18.184 22.2745 17.1875C24.2845 12.5685 26.516 6.51854 25.889 3.61751C25.889 3.61751 25.889 3.61751 25.889 3.61699C25.7415 2.93402 25.449 2.42396 25.0205 2.10099C23.406 0.88201 21.138 1.49402 18.281 3.90849C17.81 3.6495 17.2715 3.49997 16.702 3.49997H16.5C16.5 1.57002 14.93 0 13 0C11.07 0 9.50003 1.57002 9.50003 3.49997H9.29806C8.72859 3.49997 8.19058 3.64945 7.71907 3.90849C4.86199 1.49449 2.59401 0.882479 0.979517 2.10152C0.551022 2.42501 0.258991 2.93501 0.111042 3.61751C0.111042 3.61751 0.111042 3.61751 0.111042 3.61804C-0.515969 6.51854 1.71551 12.569 3.72551 17.188C3.58852 18.1845 3.51152 19.2035 3.50104 20.2435C2.32752 20.7285 1.49954 21.8855 1.49954 23.232V26.768C1.49954 28.55 2.94902 30 4.7315 30H21.2674C23.0495 30 24.4994 28.55 24.4994 26.768V23.232C24.5005 21.885 23.6725 20.728 22.499 20.243ZM24.418 2.89898C24.466 2.93496 24.511 2.97697 24.553 3.02449C24.526 3.02449 24.4989 3.03099 24.472 3.03152C23.9215 3.04904 23.405 3.22804 22.9395 3.51603C22.5975 3.72755 22.288 3.98905 22.0045 4.27353C21.6645 4.61554 21.3605 4.99253 21.081 5.38505C20.7455 5.85655 20.444 6.35202 20.1645 6.85803C20.1135 6.95055 20.063 7.04301 20.0135 7.13653C20.0075 7.00704 19.9985 6.87702 19.9955 6.74706L19.9935 6.67053C19.9885 6.48403 19.9635 6.30204 19.9275 6.12456C19.9225 6.10054 19.9195 6.07657 19.9145 6.05307C19.878 5.89259 19.8265 5.73807 19.767 5.58708C19.751 5.54706 19.737 5.50757 19.7195 5.4686C19.657 5.32763 19.5835 5.19362 19.502 5.0636C19.4775 5.02411 19.4535 4.98509 19.4275 4.94712C19.336 4.81364 19.2345 4.68814 19.125 4.5696C19.113 4.55659 19.1045 4.54159 19.0925 4.52859C20.8175 3.10652 22.999 1.82701 24.418 2.89898ZM13.0005 0.99949C14.379 0.99949 15.5005 2.12097 15.5005 3.49951H10.5006C10.5005 2.12097 11.622 0.99949 13.0005 0.99949ZM13.0005 5.49948C15.2061 5.49948 17.0005 7.29397 17.0005 9.49949C17.0005 11.705 15.2061 13.4995 13.0005 13.4995C10.795 13.4995 9.00052 11.705 9.00052 9.49949C9.00052 7.29397 10.795 5.49948 13.0005 5.49948ZM8.50054 14.9994H17.5005C17.7765 14.9994 18.0005 15.2234 18.0005 15.4994C18.0005 15.7754 17.7765 15.9994 17.5005 15.9994H17.0005V16.9994C17.0005 17.2754 16.7765 17.4994 16.5006 17.4994C16.2246 17.4994 16.0006 17.2754 16.0006 16.9994V15.9994H8.5006C8.22462 15.9994 8.00062 15.7754 8.00062 15.4994C8.0005 15.2234 8.2245 14.9994 8.50054 14.9994ZM1.48805 3.02501C1.47504 3.02501 1.46204 3.02501 1.44903 3.02501C1.48952 2.97703 1.53504 2.93501 1.58303 2.89904C3.001 1.82707 5.18355 3.10605 6.90855 4.52905C6.89706 4.54107 6.88857 4.55607 6.87703 4.56855C6.76652 4.68802 6.66404 4.81452 6.57205 4.94905C6.54656 4.98603 6.52306 5.02405 6.49904 5.06208C6.41707 5.1931 6.34306 5.32856 6.28001 5.47059C6.26349 5.50856 6.24949 5.54712 6.23455 5.58561C6.17402 5.73714 6.12257 5.89259 6.08607 6.05413C6.08056 6.07716 6.07804 6.10065 6.07359 6.12415C6.03709 6.30216 6.01259 6.48362 6.00761 6.67065L6.00562 6.74717C6.00263 6.87667 5.99414 7.00768 5.98763 7.13817C5.35213 5.94415 4.59967 4.72019 3.53666 3.85716C2.97914 3.40464 2.29717 3.05413 1.56164 3.03216C1.53704 3.03152 1.51202 3.02501 1.48805 3.02501ZM3.00404 4.7165C3.75855 5.3745 4.71053 6.63948 5.79205 9.01047C5.61152 10.125 5.31404 11.275 4.90054 12.4775C3.631 9.04698 2.985 6.40346 3.00404 4.7165ZM21.0005 23.83C21.0005 24.199 20.7 24.4995 20.331 24.4995H20.0005V25.8575C20.0005 27.0385 19.0395 27.9995 17.8585 27.9995H8.14247C6.96146 27.9995 6.00046 27.0385 6.00046 25.8575V24.4995H5.66994C5.30091 24.4995 5.00045 24.1989 5.00045 23.83V22.5875C5.00045 21.9875 5.48847 21.4995 6.08847 21.4995H19.9125C20.5125 21.4995 21.0004 21.9875 21.0004 22.5875V23.83H21.0005ZM21.1005 12.4775C20.687 11.2749 20.3895 10.125 20.209 9.01047C21.2905 6.63948 22.242 5.3745 22.997 4.7165C23.016 6.40346 22.37 9.04698 21.1005 12.4775Z" fill="#FFF4E6"/>
</svg>
