<svg width="59" height="80" viewBox="0 0 59 80" fill="none" xmlns="http://www.w3.org/2000/svg">
<path d="M55.0419 35.1391H49.5178V22.243C49.5185 16.3449 47.4898 10.688 43.878 6.51671C40.2661 2.34539 35.3669 0.00127483 30.2581 0H28.5925C23.4836 0.00127483 18.5845 2.34539 14.9726 6.51671C11.3608 10.688 9.33208 16.3449 9.33281 22.243V35.1439H3.80863C2.79924 35.1439 1.83113 35.6065 1.11699 36.4301C0.402856 37.2536 0.00110356 38.3708 0 39.5361L0 75.603C0.000367874 76.769 0.401751 77.8872 1.11593 78.7117C1.83011 79.5362 2.79863 79.9996 3.80863 80H55.0419C56.0519 79.9996 57.0205 79.5362 57.7346 78.7117C58.4488 77.8872 58.8502 76.769 58.8506 75.603V39.5361C58.8506 38.3699 58.4493 37.2516 57.7351 36.427C57.0208 35.6024 56.0521 35.1391 55.0419 35.1391ZM20.3826 24.7347C20.3992 18.1232 24.4674 12.7647 29.4669 12.7647C34.4637 12.7647 38.5096 18.1232 38.4888 24.7347L38.4625 35.1391H20.3576L20.3826 24.7347ZM33.1937 67.3843C33.2156 67.495 33.2156 67.61 33.1937 67.7208C33.1718 67.8316 33.1286 67.9352 33.0672 68.024C33.0059 68.1128 32.928 68.1846 32.8394 68.2339C32.7507 68.2832 32.6536 68.3088 32.5552 68.3089H26.2954C26.197 68.3088 26.0999 68.2832 26.0112 68.2339C25.9226 68.1846 25.8447 68.1128 25.7834 68.024C25.722 67.9352 25.6788 67.8316 25.6569 67.7208C25.635 67.61 25.635 67.495 25.6569 67.3843L27.4738 58.2506C26.3736 57.7288 25.4644 56.7823 24.9014 55.5727C24.3385 54.3631 24.1566 52.9654 24.387 51.6182C24.6173 50.271 25.2456 49.058 26.1645 48.1861C27.0833 47.3142 28.2359 46.8375 29.4253 46.8375C30.6147 46.8375 31.7672 47.3142 32.6861 48.1861C33.605 49.058 34.2333 50.271 34.4636 51.6182C34.694 52.9654 34.5121 54.3631 33.9492 55.5727C33.3862 56.7823 32.477 57.7288 31.3768 58.2506L33.1937 67.3843Z" fill="#F0E6D2"/>
</svg>
