<svg width="18" height="21" viewBox="0 0 18 21" fill="none" xmlns="http://www.w3.org/2000/svg">
<path d="M3.98268 16.5H10.7781V14.9531H3.98268V16.5ZM3.98268 12.1172H13.9394V10.5703H3.98268V12.1172ZM3.98268 7.73438H13.9394V6.1875H3.98268V7.73438ZM1.49351 19.0781H16.4286V3.60938H1.49351V19.0781ZM1.49351 3.60938V19.0781V3.60938ZM1.49351 20.625C1.07864 20.625 0.72601 20.4746 0.435606 20.1738C0.145202 19.873 0 19.5078 0 19.0781V3.60938C0 3.17969 0.145202 2.81445 0.435606 2.51367C0.72601 2.21289 1.07864 2.0625 1.49351 2.0625H6.59632C6.67929 1.46094 6.94481 0.966797 7.39286 0.580078C7.84091 0.193359 8.36364 0 8.96104 0C9.55844 0 10.0812 0.193359 10.5292 0.580078C10.9773 0.966797 11.2428 1.46094 11.3258 2.0625H16.4286C16.8434 2.0625 17.1961 2.21289 17.4865 2.51367C17.7769 2.81445 17.9221 3.17969 17.9221 3.60938V19.0781C17.9221 19.5078 17.7769 19.873 17.4865 20.1738C17.1961 20.4746 16.8434 20.625 16.4286 20.625H1.49351ZM8.96104 3.17109C9.19336 3.17109 9.39664 3.08086 9.57089 2.90039C9.74513 2.71992 9.83225 2.50938 9.83225 2.26875C9.83225 2.02813 9.74513 1.81758 9.57089 1.63711C9.39664 1.45664 9.19336 1.36641 8.96104 1.36641C8.72872 1.36641 8.52543 1.45664 8.35119 1.63711C8.17695 1.81758 8.08983 2.02813 8.08983 2.26875C8.08983 2.50938 8.17695 2.71992 8.35119 2.90039C8.52543 3.08086 8.72872 3.17109 8.96104 3.17109Z" fill="#F0E6D2"/>
</svg>
