<svg width="22" height="30" viewBox="0 0 22 30" fill="none" xmlns="http://www.w3.org/2000/svg">
<path d="M7.25 30C5.375 30 3.78125 29.3438 2.46875 28.0312C1.15625 26.7188 0.5 25.125 0.5 23.25C0.5 22.45 0.68125 21.6938 1.04375 20.9813C1.40625 20.2688 2.0125 19.4875 2.8625 18.6375C3.2375 18.2625 3.5375 17.95 3.7625 17.7C3.9875 17.45 4.225 17.175 4.475 16.875C3.2 14.925 2.21875 12.8813 1.53125 10.7438C0.84375 8.60625 0.5 6.525 0.5 4.5C0.5 3.05 0.7625 1.9375 1.2875 1.1625C1.8125 0.3875 2.55 0 3.5 0C4.55 0 5.6375 0.5125 6.7625 1.5375C7.8875 2.5625 8.875 3.925 9.725 5.625C9.975 6.125 10.2063 6.64375 10.4188 7.18125C10.6313 7.71875 10.825 8.3125 11 8.9625C11.175 8.3125 11.3687 7.71875 11.5812 7.18125C11.7937 6.64375 12.025 6.125 12.275 5.625C13.125 3.925 14.1125 2.5625 15.2375 1.5375C16.3625 0.5125 17.45 0 18.5 0C19.45 0 20.1875 0.3875 20.7125 1.1625C21.2375 1.9375 21.5 3.05 21.5 4.5C21.5 6.525 21.1562 8.60625 20.4688 10.7438C19.7812 12.8813 18.8 14.925 17.525 16.875C17.775 17.175 18.0125 17.45 18.2375 17.7C18.4625 17.95 18.7625 18.2625 19.1375 18.6375C19.9875 19.4875 20.5938 20.2688 20.9563 20.9813C21.3188 21.6938 21.5 22.45 21.5 23.25C21.5 25.125 20.8438 26.7188 19.5312 28.0312C18.2188 29.3438 16.625 30 14.75 30C13.625 30 12.7188 29.875 12.0312 29.625C11.3438 29.375 11 29.25 11 29.25C11 29.25 10.6562 29.375 9.96875 29.625C9.28125 29.875 8.375 30 7.25 30ZM7.25 27.75C7.675 27.75 8.175 27.6812 8.75 27.5437C9.325 27.4062 9.9375 27.2 10.5875 26.925C10.3125 26.8 10.0625 26.5875 9.8375 26.2875C9.6125 25.9875 9.5 25.725 9.5 25.5C9.5 25.3 9.64375 25.125 9.93125 24.975C10.2188 24.825 10.575 24.75 11 24.75C11.425 24.75 11.7812 24.825 12.0687 24.975C12.3562 25.125 12.5 25.3 12.5 25.5C12.5 25.725 12.3875 25.9875 12.1625 26.2875C11.9375 26.5875 11.6875 26.8 11.4125 26.925C12.0625 27.2 12.675 27.4062 13.25 27.5437C13.825 27.6812 14.325 27.75 14.75 27.75C16 27.75 17.0625 27.3125 17.9375 26.4375C18.8125 25.5625 19.25 24.5 19.25 23.25C19.25 22.7 19.1 22.1625 18.8 21.6375C18.5 21.1125 18.0625 20.6 17.4875 20.1C17.2125 19.85 16.9062 19.55 16.5687 19.2C16.2312 18.85 15.925 18.5 15.65 18.15C14.85 17.1 14.1625 16.4375 13.5875 16.1625C13.0125 15.8875 12.15 15.75 11 15.75C9.85 15.75 8.9875 15.8875 8.4125 16.1625C7.8375 16.4375 7.15 17.1 6.35 18.15C6.075 18.5 5.76875 18.85 5.43125 19.2C5.09375 19.55 4.7875 19.85 4.5125 20.1C3.9375 20.6 3.5 21.1125 3.2 21.6375C2.9 22.1625 2.75 22.7 2.75 23.25C2.75 24.5 3.1875 25.5625 4.0625 26.4375C4.9375 27.3125 6 27.75 7.25 27.75ZM8.75 22.125C8.55 22.125 8.375 22.0125 8.225 21.7875C8.075 21.5625 8 21.3 8 21C8 20.7 8.075 20.4375 8.225 20.2125C8.375 19.9875 8.55 19.875 8.75 19.875C8.95 19.875 9.125 19.9875 9.275 20.2125C9.425 20.4375 9.5 20.7 9.5 21C9.5 21.3 9.425 21.5625 9.275 21.7875C9.125 22.0125 8.95 22.125 8.75 22.125ZM13.25 22.125C13.05 22.125 12.875 22.0125 12.725 21.7875C12.575 21.5625 12.5 21.3 12.5 21C12.5 20.7 12.575 20.4375 12.725 20.2125C12.875 19.9875 13.05 19.875 13.25 19.875C13.45 19.875 13.625 19.9875 13.775 20.2125C13.925 20.4375 14 20.7 14 21C14 21.3 13.925 21.5625 13.775 21.7875C13.625 22.0125 13.45 22.125 13.25 22.125ZM6.0125 15.1125C6.5375 14.6125 7.05625 14.2437 7.56875 14.0062C8.08125 13.7687 8.7125 13.6125 9.4625 13.5375C9.3375 12.2625 9.125 11.0188 8.825 9.80625C8.525 8.59375 8.1375 7.5125 7.6625 6.5625C7.0875 5.3875 6.425 4.40625 5.675 3.61875C4.925 2.83125 4.1375 2.3 3.3125 2.025C3.1125 2.4 2.96875 2.8 2.88125 3.225C2.79375 3.65 2.75 4.075 2.75 4.5C2.75 6.3 3.03125 8.10625 3.59375 9.91875C4.15625 11.7313 4.9625 13.4625 6.0125 15.1125ZM15.9875 15.1125C17.0375 13.4625 17.8438 11.7313 18.4062 9.91875C18.9688 8.10625 19.25 6.3 19.25 4.5C19.25 4.075 19.2063 3.65 19.1188 3.225C19.0312 2.8 18.8875 2.4 18.6875 2.025C17.8625 2.3 17.075 2.83125 16.325 3.61875C15.575 4.40625 14.9125 5.3875 14.3375 6.5625C13.8625 7.5125 13.475 8.59375 13.175 9.80625C12.875 11.0188 12.6625 12.2625 12.5375 13.5375C13.2875 13.6125 13.9188 13.7687 14.4313 14.0062C14.9438 14.2437 15.4625 14.6125 15.9875 15.1125Z" fill="white"/>
</svg>
