<svg width="20" height="20" viewBox="0 0 20 20" fill="none" xmlns="http://www.w3.org/2000/svg">
<path d="M17.1429 19.9762C17.0426 19.9762 16.9507 19.9643 16.8672 19.9405C16.7836 19.9167 16.7001 19.8651 16.6165 19.7857L10.9774 14.4286V12.619L12.2556 11.4048H14.1604L19.7995 16.7619C19.883 16.8413 19.9373 16.9206 19.9624 17C19.9875 17.0794 20 17.1667 20 17.2619C20 17.3571 19.9875 17.4444 19.9624 17.5238C19.9373 17.6032 19.883 17.6825 19.7995 17.7619L17.6692 19.7857C17.5856 19.8651 17.5021 19.9167 17.4185 19.9405C17.335 19.9643 17.2431 19.9762 17.1429 19.9762ZM17.1429 18.2857L18.2206 17.2619L13.208 12.5L12.1303 13.5238L17.1429 18.2857ZM2.88221 20C2.78195 20 2.68588 19.9841 2.59398 19.9524C2.50209 19.9206 2.41437 19.8651 2.33083 19.7857L0.225564 17.7857C0.142022 17.7063 0.0835421 17.623 0.0501253 17.5357C0.0167084 17.4484 0 17.3571 0 17.2619C0 17.1667 0.0167084 17.0794 0.0501253 17C0.0835421 16.9206 0.142022 16.8413 0.225564 16.7619L5.86466 11.4048H7.99499L8.94737 10.5L4.5614 6.33333H3.13283L0 3.35714L2.4812 1L5.61404 3.97619V5.33333L10 9.5L13.2581 6.40476L11.5789 4.80952L12.9825 3.47619H10.1504L9.69925 3.04762L12.9073 0L13.3584 0.428571V3.11905L14.7619 1.78571L18.9975 5.80952C19.2481 6.04762 19.4444 6.32143 19.5865 6.63095C19.7285 6.94048 19.7995 7.26984 19.7995 7.61905C19.7995 7.92063 19.7494 8.21825 19.6491 8.5119C19.5489 8.80556 19.3901 9.07937 19.1729 9.33333L17.0426 7.30952L15.6391 8.64286L14.3358 7.40476L9.04762 12.4286V14.4286L3.40852 19.7857C3.32498 19.8651 3.24144 19.9206 3.15789 19.9524C3.07435 19.9841 2.98246 20 2.88221 20ZM2.88221 18.2857L7.89474 13.5238L6.81704 12.5L1.80451 17.2619L2.88221 18.2857Z" fill="#F0E6D2"/>
</svg>
