<svg width="26" height="25" viewBox="0 0 26 25" fill="none" xmlns="http://www.w3.org/2000/svg">
<path d="M7.125 25C6.5 25 5.96875 24.7812 5.53125 24.3438C5.09375 23.9062 4.875 23.375 4.875 22.75C4.875 22.125 5.09375 21.5937 5.53125 21.1562C5.96875 20.7188 6.5 20.5 7.125 20.5C7.75 20.5 8.28125 20.7188 8.71875 21.1562C9.15625 21.5937 9.375 22.125 9.375 22.75C9.375 23.375 9.15625 23.9062 8.71875 24.3438C8.28125 24.7812 7.75 25 7.125 25ZM19.75 25C19.125 25 18.5937 24.7812 18.1562 24.3438C17.7187 23.9062 17.5 23.375 17.5 22.75C17.5 22.125 17.7187 21.5937 18.1562 21.1562C18.5937 20.7188 19.125 20.5 19.75 20.5C20.375 20.5 20.9062 20.7188 21.3437 21.1562C21.7812 21.5937 22 22.125 22 22.75C22 23.375 21.7812 23.9062 21.3437 24.3438C20.9062 24.7812 20.375 25 19.75 25ZM13.0625 9.5625L11.75 8.25L14.0625 5.9375H8.375V4.0625H14.0625L11.75 1.75L13.0625 0.4375L17.625 5L13.0625 9.5625ZM0 1.875V0H3.625L8.9375 11.375H17.9375L22.9375 2.625H25.0312L19.9687 12.0938C19.7604 12.4479 19.4687 12.7552 19.0937 13.0156C18.7187 13.276 18.3125 13.4062 17.875 13.4062H8.40625L6.65625 16.6562H22V18.5312H6.9375C6.0625 18.5312 5.43229 18.2396 5.04687 17.6562C4.66146 17.0729 4.66667 16.4167 5.0625 15.6875L7.0625 12L2.4375 1.875H0Z" fill="#F0E6D2"/>
</svg>
