<svg width="19" height="16" viewBox="0 0 19 16" fill="none" xmlns="http://www.w3.org/2000/svg">
<path d="M0.888889 1.33333V0H11.5556V1.33333H0.888889ZM5.11111 12.6667H7.33333V10.4444H9.55556V8.22222H7.33333V6H5.11111V8.22222H2.88889V10.4444H5.11111V12.6667ZM1.33333 16C0.977778 16 0.666667 15.8667 0.4 15.6C0.133333 15.3333 0 15.0222 0 14.6667V4C0 3.64444 0.133333 3.33333 0.4 3.06667C0.666667 2.8 0.977778 2.66667 1.33333 2.66667H11.1111C11.4667 2.66667 11.7778 2.8 12.0444 3.06667C12.3111 3.33333 12.4444 3.64444 12.4444 4V14.6667C12.4444 15.0222 12.3111 15.3333 12.0444 15.6C11.7778 15.8667 11.4667 16 11.1111 16H1.33333ZM1.33333 14.6667H11.1111V4H1.33333V14.6667ZM15.5556 9.2C15.037 8.94815 14.6111 8.54074 14.2778 7.97778C13.9444 7.41482 13.7778 6.75556 13.7778 6C13.7778 5.06667 14.0148 4.27778 14.4889 3.63333C14.963 2.98889 15.5407 2.66667 16.2222 2.66667C16.9037 2.66667 17.4815 2.98889 17.9556 3.63333C18.4296 4.27778 18.6667 5.06667 18.6667 6C18.6667 6.75556 18.5 7.41482 18.1667 7.97778C17.8333 8.54074 17.4074 8.94815 16.8889 9.2V15.3333C16.8889 15.5111 16.8259 15.6667 16.7 15.8C16.5741 15.9333 16.4148 16 16.2222 16C16.0444 16 15.8889 15.9333 15.7556 15.8C15.6222 15.6667 15.5556 15.5111 15.5556 15.3333V9.2ZM16.2222 8C16.4444 8 16.6852 7.82222 16.9444 7.46667C17.2037 7.11111 17.3333 6.62222 17.3333 6C17.3333 5.37778 17.2037 4.88889 16.9444 4.53333C16.6852 4.17778 16.4444 4 16.2222 4C16 4 15.7593 4.17778 15.5 4.53333C15.2407 4.88889 15.1111 5.37778 15.1111 6C15.1111 6.62222 15.2407 7.11111 15.5 7.46667C15.7593 7.82222 16 8 16.2222 8Z" fill="#8FFB9A"/>
</svg>
