<svg width="25" height="26" viewBox="0 0 25 26" fill="none" xmlns="http://www.w3.org/2000/svg">
<path d="M7.0625 11.6562C7.41667 11.6562 7.71354 11.5365 7.95312 11.2969C8.19271 11.0573 8.3125 10.7604 8.3125 10.4062C8.3125 10.0521 8.19271 9.75521 7.95312 9.51562C7.71354 9.27604 7.41667 9.15625 7.0625 9.15625C6.70833 9.15625 6.41146 9.27604 6.17188 9.51562C5.93229 9.75521 5.8125 10.0521 5.8125 10.4062C5.8125 10.7604 5.93229 11.0573 6.17188 11.2969C6.41146 11.5365 6.70833 11.6562 7.0625 11.6562ZM12.5938 11.6562C12.9479 11.6562 13.2448 11.5365 13.4844 11.2969C13.724 11.0573 13.8438 10.7604 13.8438 10.4062C13.8438 10.0521 13.724 9.75521 13.4844 9.51562C13.2448 9.27604 12.9479 9.15625 12.5938 9.15625C12.2396 9.15625 11.9427 9.27604 11.7031 9.51562C11.4635 9.75521 11.3438 10.0521 11.3438 10.4062C11.3438 10.7604 11.4635 11.0573 11.7031 11.2969C11.9427 11.5365 12.2396 11.6562 12.5938 11.6562ZM17.9062 11.6562C18.2604 11.6562 18.5573 11.5365 18.7969 11.2969C19.0365 11.0573 19.1562 10.7604 19.1562 10.4062C19.1562 10.0521 19.0365 9.75521 18.7969 9.51562C18.5573 9.27604 18.2604 9.15625 17.9062 9.15625C17.5521 9.15625 17.2552 9.27604 17.0156 9.51562C16.776 9.75521 16.6562 10.0521 16.6562 10.4062C16.6562 10.7604 16.776 11.0573 17.0156 11.2969C17.2552 11.5365 17.5521 11.6562 17.9062 11.6562ZM0 25.5V2.375C0 1.89583 0.1875 1.46354 0.5625 1.07813C0.9375 0.692708 1.375 0.5 1.875 0.5H23.125C23.6042 0.5 24.0365 0.692708 24.4219 1.07813C24.8073 1.46354 25 1.89583 25 2.375V18.625C25 19.1042 24.8073 19.5365 24.4219 19.9219C24.0365 20.3073 23.6042 20.5 23.125 20.5H5L0 25.5ZM1.875 20.9688L4.21875 18.625H23.125V2.375H1.875V20.9688ZM1.875 2.375V18.625V20.9688V2.375Z" fill="white"/>
</svg>
