<svg width="18" height="19" viewBox="0 0 18 19" fill="none" xmlns="http://www.w3.org/2000/svg">
<path d="M18 0.5V6.6875H16.3125V3.39687L11.1375 8.54375C11.5312 9.0875 11.8359 9.68281 12.0516 10.3297C12.2672 10.9766 12.375 11.6375 12.375 12.3125C12.375 14.0375 11.775 15.5 10.575 16.7C9.375 17.9 7.9125 18.5 6.1875 18.5C4.4625 18.5 3 17.9 1.8 16.7C0.6 15.5 0 14.0375 0 12.3125C0 10.5875 0.6 9.125 1.8 7.925C3 6.725 4.4625 6.125 6.1875 6.125C6.8625 6.125 7.51875 6.23281 8.15625 6.44844C8.79375 6.66406 9.38437 6.96875 9.92812 7.3625L15.1031 2.1875H11.8125V0.5H18ZM6.1875 7.8125C4.95 7.8125 3.89063 8.25313 3.00938 9.13438C2.12813 10.0156 1.6875 11.075 1.6875 12.3125C1.6875 13.55 2.12813 14.6094 3.00938 15.4906C3.89063 16.3719 4.95 16.8125 6.1875 16.8125C7.425 16.8125 8.48437 16.3719 9.36562 15.4906C10.2469 14.6094 10.6875 13.55 10.6875 12.3125C10.6875 11.075 10.2469 10.0156 9.36562 9.13438C8.48437 8.25313 7.425 7.8125 6.1875 7.8125Z" fill="#2C6AEC"/>
</svg>
