<svg width="20" height="21" viewBox="0 0 20 21" fill="none" xmlns="http://www.w3.org/2000/svg">
<path d="M8.925 18.6V16.55C8.34167 16.55 7.85 16.3333 7.45 15.9C7.05 15.4667 6.85 14.9583 6.85 14.375V13.275L1.725 8.15C1.64167 8.48333 1.58333 8.8125 1.55 9.1375C1.51667 9.4625 1.5 9.79167 1.5 10.125C1.5 12.2917 2.20417 14.1833 3.6125 15.8C5.02083 17.4167 6.79167 18.35 8.925 18.6ZM16.275 15.9C17.0083 15.1 17.5625 14.2042 17.9375 13.2125C18.3125 12.2208 18.5 11.1917 18.5 10.125C18.5 8.35833 18.0167 6.75417 17.05 5.3125C16.0833 3.87083 14.7917 2.81667 13.175 2.15V2.6C13.175 3.18333 12.975 3.69167 12.575 4.125C12.175 4.55833 11.6833 4.775 11.1 4.775H8.925V6.95C8.925 7.23333 8.8125 7.46667 8.5875 7.65C8.3625 7.83333 8.10833 7.925 7.825 7.925H5.75V10.125H12.2C12.4833 10.125 12.7167 10.2333 12.9 10.45C13.0833 10.6667 13.175 10.9167 13.175 11.2V14.375H14.25C14.7333 14.375 15.1583 14.5167 15.525 14.8C15.8917 15.0833 16.1417 15.45 16.275 15.9ZM10 20.125C8.61667 20.125 7.31667 19.8625 6.1 19.3375C4.88333 18.8125 3.825 18.1 2.925 17.2C2.025 16.3 1.3125 15.2417 0.7875 14.025C0.2625 12.8083 0 11.5083 0 10.125C0 8.74167 0.2625 7.44167 0.7875 6.225C1.3125 5.00833 2.025 3.95 2.925 3.05C3.825 2.15 4.88333 1.4375 6.1 0.9125C7.31667 0.3875 8.61667 0.125 10 0.125C11.3833 0.125 12.6833 0.3875 13.9 0.9125C15.1167 1.4375 16.175 2.15 17.075 3.05C17.975 3.95 18.6875 5.00833 19.2125 6.225C19.7375 7.44167 20 8.74167 20 10.125C20 11.5083 19.7375 12.8083 19.2125 14.025C18.6875 15.2417 17.975 16.3 17.075 17.2C16.175 18.1 15.1167 18.8125 13.9 19.3375C12.6833 19.8625 11.3833 20.125 10 20.125Z" fill="white"/>
</svg>
