<svg width="21" height="21" viewBox="0 0 21 21" fill="none" xmlns="http://www.w3.org/2000/svg">
<path d="M7.16979 13.263V7.39062H12.8889V13.263H7.16979ZM8.84368 11.5443H11.215V9.10938H8.84368V11.5443ZM6.69553 20.625V18.3333H3.90572C3.45936 18.3333 3.06878 18.1615 2.73401 17.8177C2.39923 17.474 2.23184 17.0729 2.23184 16.6146V13.75H0V12.0312H2.23184V8.47917H0V6.76042H2.23184V3.89583C2.23184 3.4375 2.39923 3.03646 2.73401 2.69271C3.06878 2.34896 3.45936 2.17708 3.90572 2.17708H6.69553V0H8.36941V2.17708H11.8288V0H13.5026V2.17708H16.2924C16.7388 2.17708 17.1294 2.34896 17.4642 2.69271C17.7989 3.03646 17.9663 3.4375 17.9663 3.89583V6.76042H20.0866V8.47917H17.9663V12.0312H20.0866V13.75H17.9663V16.6146C17.9663 17.0729 17.7989 17.474 17.4642 17.8177C17.1294 18.1615 16.7388 18.3333 16.2924 18.3333H13.5026V20.625H11.8288V18.3333H8.36941V20.625H6.69553ZM16.2924 16.6146V3.89583H3.90572V16.6146H16.2924Z" fill="#F0E6D2"/>
</svg>
