<svg width="40" height="36" viewBox="0 0 40 36" fill="none" xmlns="http://www.w3.org/2000/svg">
<path d="M20.1234 36C16.9234 36 14.1734 34.9667 11.8734 32.9C9.57344 30.8333 8.2901 28.2667 8.02344 25.2C5.75677 24.6333 3.85677 23.5167 2.32344 21.85C0.790104 20.1833 0.0234375 18.2 0.0234375 15.9C0.0234375 13.2 1.02344 10.9583 3.02344 9.175C5.02344 7.39167 7.3901 6.5 10.1234 6.5H15.4234C15.8901 6.5 16.2734 6.325 16.5734 5.975C16.8734 5.625 17.0234 5.21667 17.0234 4.75C17.0234 4.28333 16.8734 3.875 16.5734 3.525C16.2734 3.175 15.8901 3 15.4234 3H12.1734C11.7068 3 11.3151 2.85833 10.9984 2.575C10.6818 2.29167 10.5234 1.93333 10.5234 1.5C10.5234 1.06667 10.6818 0.708333 10.9984 0.425C11.3151 0.141667 11.6901 0 12.1234 0H15.2734C16.5734 0 17.6901 0.466667 18.6234 1.4C19.5568 2.33333 20.0234 3.45 20.0234 4.75C20.0234 6.08333 19.5568 7.20833 18.6234 8.125C17.6901 9.04167 16.5568 9.5 15.2234 9.5H9.92344C8.02344 9.5 6.39844 10.125 5.04844 11.375C3.69844 12.625 3.02344 14.1667 3.02344 16C3.02344 17.5 3.5151 18.8 4.49844 19.9C5.48177 21 6.6901 21.7667 8.12344 22.2C8.55677 19.2667 9.87344 16.8333 12.0734 14.9C14.2734 12.9667 16.8401 12 19.7734 12C20.4734 12 21.1734 12.05 21.8734 12.15C22.5734 12.25 23.2068 12.4 23.7734 12.6C24.0401 12.5 24.3068 12.4083 24.5734 12.325C24.8401 12.2417 25.1151 12.175 25.3984 12.125C25.6818 12.075 25.9568 12.0417 26.2234 12.025C26.4901 12.0083 26.7734 12 27.0734 12C29.5401 12 31.6484 12.8583 33.3984 14.575C35.1484 16.2917 36.0234 18.3833 36.0234 20.85C36.0234 21.0167 36.0234 21.2167 36.0234 21.45C36.0234 21.6833 35.9901 21.9333 35.9234 22.2L37.7234 23.95C38.4568 24.65 39.0151 25.425 39.3984 26.275C39.7818 27.125 39.9734 28.0333 39.9734 29C39.9734 30.9667 39.3068 32.625 37.9734 33.975C36.6401 35.325 35.0068 36 33.0734 36H20.1234ZM20.1234 33H32.9734C34.0401 33 34.9818 32.6 35.7984 31.8C36.6151 31 37.0234 30.0667 37.0234 29C37.0234 28.4667 36.9068 27.9667 36.6734 27.5C36.4401 27.0333 36.0901 26.5667 35.6234 26.1L32.6734 23.2C32.8068 22.8 32.8984 22.4083 32.9484 22.025C32.9984 21.6417 33.0234 21.2667 33.0234 20.9C33.0234 19.2667 32.4484 17.875 31.2984 16.725C30.1484 15.575 28.7401 15 27.0734 15C25.5401 15 24.2318 15.5583 23.1484 16.675C22.0651 17.7917 21.5234 19.15 21.5234 20.75C21.5234 21.45 21.6234 22.125 21.8234 22.775C22.0234 23.425 22.3401 24.0167 22.7734 24.55L20.6734 26.65C19.9068 25.85 19.3568 24.925 19.0234 23.875C18.6901 22.825 18.5234 21.75 18.5234 20.65C18.5234 19.6167 18.6901 18.6167 19.0234 17.65C19.3568 16.6833 19.8568 15.8167 20.5234 15.05C20.2568 14.9833 20.0318 14.9583 19.8484 14.975C19.6651 14.9917 19.4901 15 19.3234 15C17.0901 15 15.1318 15.9167 13.4484 17.75C11.7651 19.5833 10.9234 21.7167 10.9234 24.15C10.9234 25.35 11.1651 26.4833 11.6484 27.55C12.1318 28.6167 12.7984 29.5583 13.6484 30.375C14.4984 31.1917 15.4818 31.8333 16.5984 32.3C17.7151 32.7667 18.8901 33 20.1234 33ZM30.0234 29.5C29.6234 29.5 29.2734 29.35 28.9734 29.05C28.6734 28.75 28.5234 28.3833 28.5234 27.95C28.5234 27.55 28.6734 27.2083 28.9734 26.925C29.2734 26.6417 29.6401 26.5 30.0734 26.5C30.4734 26.5 30.8151 26.6417 31.0984 26.925C31.3818 27.2083 31.5234 27.5667 31.5234 28C31.5234 28.4 31.3818 28.75 31.0984 29.05C30.8151 29.35 30.4568 29.5 30.0234 29.5Z" fill="#F0E6D2"/>
</svg>
