<svg width="10" height="20" viewBox="0 0 10 20" fill="none" xmlns="http://www.w3.org/2000/svg">
<path d="M0 0H10V8.325C10 8.70833 9.90417 9.05833 9.7125 9.375C9.52083 9.69167 9.25833 9.95 8.925 10.15L5.4 12.2L6.05 14.625H9.4L6.675 16.65L7.725 20L5 17.975L2.25 20L3.3 16.65L0.575 14.625H3.95L4.575 12.2L1.075 10.15C0.741666 9.95 0.479167 9.69167 0.2875 9.375C0.0958332 9.05833 0 8.70833 0 8.325V0ZM1.5 1.5V8.325C1.5 8.44167 1.5375 8.55 1.6125 8.65C1.6875 8.75 1.8 8.84167 1.95 8.925L4.35 10.25V1.5H1.5ZM8.5 1.5H5.85V10.25L8.05 8.925C8.2 8.84167 8.3125 8.75 8.3875 8.65C8.4625 8.55 8.5 8.44167 8.5 8.325V1.5Z" fill="#F0E6D2"/>
</svg>
