<svg width="22" height="20" viewBox="0 0 22 20" fill="none" xmlns="http://www.w3.org/2000/svg">
<path d="M13.6 20H4V18H13.6333C15.1889 18 16.5278 17.4833 17.65 16.45C18.7722 15.4167 19.3333 14.1333 19.3333 12.6C19.3333 11.0667 18.7722 9.78333 17.65 8.75C16.5278 7.71667 15.1889 7.2 13.6333 7.2H3.8L7.6 11L6.2 12.4L0 6.2L6.2 0L7.6 1.4L3.8 5.2H13.6C15.7111 5.2 17.5278 5.91111 19.05 7.33333C20.5722 8.75556 21.3333 10.5111 21.3333 12.6C21.3333 14.6889 20.5722 16.4444 19.05 17.8667C17.5278 19.2889 15.7111 20 13.6 20Z" fill="#F0E6D2"/>
</svg>
