<svg width="16" height="16" viewBox="0 0 16 16" fill="none" xmlns="http://www.w3.org/2000/svg">
<path d="M11.16 14.8H11.82V12.6H14.02V11.94H11.82V9.74H11.16V11.94H8.96V12.6H11.16V14.8ZM11.46 16C10.42 16 9.53333 15.63 8.8 14.89C8.06667 14.15 7.7 13.2733 7.7 12.26C7.7 11.22 8.06667 10.33 8.8 9.59C9.53333 8.85 10.42 8.48 11.46 8.48C12.4867 8.48 13.37 8.85 14.11 9.59C14.85 10.33 15.22 11.22 15.22 12.26C15.22 13.2733 14.85 14.15 14.11 14.89C13.37 15.63 12.4867 16 11.46 16ZM0 14.4V4.8L6.4 0L12.8 4.8V7.48C12.6133 7.41333 12.42 7.36667 12.22 7.34C12.02 7.31333 11.8133 7.29333 11.6 7.28V5.4L6.4 1.5L1.2 5.4V13.2H6.6C6.64 13.4133 6.69333 13.62 6.76 13.82C6.82667 14.02 6.90667 14.2133 7 14.4H0Z" fill="#FB8F8F"/>
</svg>
