<svg width="20" height="21" viewBox="0 0 20 21" fill="none" xmlns="http://www.w3.org/2000/svg">
<path d="M8.75 16.0833H11.25V11.75H15.5833V9.25H11.25V4.91667H8.75V9.25H4.41667V11.75H8.75V16.0833ZM1.66667 20.5C1.22222 20.5 0.833333 20.3333 0.5 20C0.166667 19.6667 0 19.2778 0 18.8333V2.16667C0 1.72222 0.166667 1.33333 0.5 1C0.833333 0.666667 1.22222 0.5 1.66667 0.5H18.3333C18.7778 0.5 19.1667 0.666667 19.5 1C19.8333 1.33333 20 1.72222 20 2.16667V18.8333C20 19.2778 19.8333 19.6667 19.5 20C19.1667 20.3333 18.7778 20.5 18.3333 20.5H1.66667ZM1.66667 18.8333H18.3333V2.16667H1.66667V18.8333Z" fill="#45FF8F"/>
</svg>
