<svg width="42" height="30" viewBox="0 0 42 30" fill="none" xmlns="http://www.w3.org/2000/svg">
<path d="M24.75 10.5937V8.34375C25.7812 7.90625 26.8359 7.57813 27.9141 7.35938C28.9922 7.14063 30.125 7.03125 31.3125 7.03125C32.125 7.03125 32.9219 7.09375 33.7031 7.21875C34.4844 7.34375 35.25 7.5 36 7.6875V9.75C35.25 9.46875 34.4922 9.25781 33.7266 9.11719C32.9609 8.97656 32.1562 8.90625 31.3125 8.90625C30.125 8.90625 28.9844 9.05469 27.8906 9.35156C26.7969 9.64844 25.75 10.0625 24.75 10.5937ZM24.75 20.9062V18.6094C25.7812 18.1719 26.8359 17.8516 27.9141 17.6484C28.9922 17.4453 30.125 17.3438 31.3125 17.3438C32.125 17.3438 32.9219 17.4062 33.7031 17.5312C34.4844 17.6562 35.25 17.8125 36 18V20.0625C35.25 19.7812 34.4922 19.5703 33.7266 19.4297C32.9609 19.2891 32.1562 19.2188 31.3125 19.2188C30.125 19.2188 28.9844 19.3594 27.8906 19.6406C26.7969 19.9219 25.75 20.3438 24.75 20.9062ZM24.75 15.75V13.5C25.7812 13.0625 26.8359 12.7344 27.9141 12.5156C28.9922 12.2969 30.125 12.1875 31.3125 12.1875C32.125 12.1875 32.9219 12.25 33.7031 12.375C34.4844 12.5 35.25 12.6563 36 12.8438V14.9062C35.25 14.625 34.4922 14.4141 33.7266 14.2734C32.9609 14.1328 32.1562 14.0625 31.3125 14.0625C30.125 14.0625 28.9844 14.2109 27.8906 14.5078C26.7969 14.8047 25.75 15.2187 24.75 15.75ZM10.125 23.4375C11.8125 23.4375 13.4453 23.6328 15.0234 24.0234C16.6016 24.4141 18.1562 25 19.6875 25.7812V5.76562C18.2812 4.82812 16.7578 4.10156 15.1172 3.58594C13.4766 3.07031 11.8125 2.8125 10.125 2.8125C8.9375 2.8125 7.77344 2.96094 6.63281 3.25781C5.49219 3.55469 4.34375 3.92187 3.1875 4.35937V24.7031C4.15625 24.2656 5.25781 23.9453 6.49219 23.7422C7.72656 23.5391 8.9375 23.4375 10.125 23.4375ZM22.5 25.7812C24.0625 25 25.5938 24.4141 27.0938 24.0234C28.5938 23.6328 30.1875 23.4375 31.875 23.4375C33.0625 23.4375 34.2891 23.5312 35.5547 23.7188C36.8203 23.9062 37.9062 24.1562 38.8125 24.4687V4.35937C37.75 3.82812 36.625 3.4375 35.4375 3.1875C34.25 2.9375 33.0625 2.8125 31.875 2.8125C30.1875 2.8125 28.5547 3.07031 26.9766 3.58594C25.3984 4.10156 23.9062 4.82812 22.5 5.76562V25.7812ZM21.0938 30C19.5 28.8125 17.7656 27.8984 15.8906 27.2578C14.0156 26.6172 12.0938 26.2969 10.125 26.2969C8.96875 26.2969 7.84375 26.4375 6.75 26.7188C5.65625 27 4.5625 27.3437 3.46875 27.75C2.75 28.0937 2.05469 28.0469 1.38281 27.6094C0.710938 27.1719 0.375 26.5469 0.375 25.7344V4.03125C0.375 3.5625 0.484375 3.13281 0.703125 2.74219C0.921875 2.35156 1.25 2.04687 1.6875 1.82812C3 1.20312 4.36719 0.742188 5.78906 0.445313C7.21094 0.148438 8.65625 0 10.125 0C12.0938 0 14.0078 0.265625 15.8672 0.796875C17.7266 1.32813 19.4688 2.14062 21.0938 3.23437C22.6875 2.14062 24.3984 1.32813 26.2266 0.796875C28.0547 0.265625 29.9375 0 31.875 0C33.3438 0 34.7812 0.148438 36.1875 0.445313C37.5938 0.742188 38.9531 1.20312 40.2656 1.82812C40.7031 2.04687 41.0391 2.35156 41.2734 2.74219C41.5078 3.13281 41.625 3.5625 41.625 4.03125V25.7344C41.625 26.6094 41.2734 27.2734 40.5703 27.7266C39.8672 28.1797 39.1719 28.1875 38.4844 27.75C37.4219 27.3125 36.3438 26.9609 35.25 26.6953C34.1562 26.4297 33.0312 26.2969 31.875 26.2969C29.9062 26.2969 28.0156 26.625 26.2031 27.2812C24.3906 27.9375 22.6875 28.8438 21.0938 30Z" fill="white"/>
</svg>
