<svg width="20" height="20" viewBox="0 0 20 20" fill="none" xmlns="http://www.w3.org/2000/svg">
<path fill-rule="evenodd" clip-rule="evenodd" d="M19.4285 11.3107C18.8022 16.2142 14.7102 20 9.75553 20C4.80081 20 0.708754 16.2141 0.0825266 11.3106H6.26328C6.59163 13.3165 8.29364 14.845 10.3439 14.845C12.3942 14.845 14.0962 13.3166 14.4246 11.3107H19.4285ZM19.5111 9.89695H14.4246C14.0964 7.8909 12.3943 6.3623 10.3439 6.3623C8.2936 6.3623 6.59156 7.89084 6.26326 9.89682H0C0.053999 4.4215 4.40101 0 9.75553 0C15.1101 0 19.4571 4.42157 19.5111 9.89695ZM10.3439 12.845C11.4784 12.845 12.4818 11.8884 12.4818 10.6036C12.4818 9.31893 11.4784 8.3623 10.3439 8.3623C9.2095 8.3623 8.20606 9.31893 8.20606 10.6036C8.20606 11.8884 9.2095 12.845 10.3439 12.845ZM10.3447 12.0177C11.1064 12.0177 11.7239 11.3847 11.7239 10.6039C11.7239 9.82307 11.1064 9.1901 10.3447 9.1901C9.58289 9.1901 8.96536 9.82307 8.96536 10.6039C8.96536 11.3847 9.58289 12.0177 10.3447 12.0177Z" fill="#F0E6D2"/>
</svg>
