<svg width="20" height="21" viewBox="0 0 20 21" fill="none" xmlns="http://www.w3.org/2000/svg">
<path d="M18.7778 20.5L11.4722 13.1944C10.9167 13.6759 10.2685 14.0509 9.52778 14.3194C8.78704 14.588 8 14.7222 7.16667 14.7222C5.16667 14.7222 3.47222 14.0278 2.08333 12.6389C0.694444 11.25 0 9.57407 0 7.61111C0 5.64815 0.694444 3.97222 2.08333 2.58333C3.47222 1.19444 5.15741 0.5 7.13889 0.5C9.10185 0.5 10.7731 1.19444 12.1528 2.58333C13.5324 3.97222 14.2222 5.64815 14.2222 7.61111C14.2222 8.40741 14.0926 9.17593 13.8333 9.91667C13.5741 10.6574 13.1852 11.3519 12.6667 12L20 19.2778L18.7778 20.5ZM7.13889 13.0556C8.63889 13.0556 9.91667 12.5231 10.9722 11.4583C12.0278 10.3935 12.5556 9.11111 12.5556 7.61111C12.5556 6.11111 12.0278 4.8287 10.9722 3.76389C9.91667 2.69907 8.63889 2.16667 7.13889 2.16667C5.62037 2.16667 4.3287 2.69907 3.26389 3.76389C2.19907 4.8287 1.66667 6.11111 1.66667 7.61111C1.66667 9.11111 2.19907 10.3935 3.26389 11.4583C4.3287 12.5231 5.62037 13.0556 7.13889 13.0556Z" fill="white"/>
</svg>
