<svg width="21" height="20" viewBox="0 0 21 20" fill="none" xmlns="http://www.w3.org/2000/svg">
<path d="M17.3684 11.2895L18.9474 12.8684V18.4211C18.9474 18.8421 18.7895 19.2105 18.4737 19.5263C18.1579 19.8421 17.7895 20 17.3684 20H1.57895C1.15789 20 0.789474 19.8421 0.473684 19.5263C0.157895 19.2105 0 18.8421 0 18.4211V2.63158C0 2.21053 0.157895 1.84211 0.473684 1.52632C0.789474 1.21053 1.15789 1.05263 1.57895 1.05263H7.18421V2.63158H1.57895V18.4211H17.3684V11.2895ZM19.8684 11.5263L16.3684 8.02632C16 8.27193 15.636 8.45175 15.2763 8.56579C14.9167 8.67982 14.4912 8.73684 14 8.73684C12.7719 8.73684 11.7368 8.31579 10.8947 7.47368C10.0526 6.63158 9.63158 5.59649 9.63158 4.36842C9.63158 3.14035 10.0526 2.10526 10.8947 1.26316C11.7368 0.421053 12.7719 0 14 0C15.2281 0 16.2632 0.421053 17.1053 1.26316C17.9474 2.10526 18.3684 3.14035 18.3684 4.36842C18.3684 4.85965 18.2982 5.32456 18.1579 5.76316C18.0175 6.20175 17.8246 6.60526 17.5789 6.97368L21 10.3947L19.8684 11.5263ZM14 7.1579C14.807 7.1579 15.4737 6.89474 16 6.36842C16.5263 5.84211 16.7895 5.17544 16.7895 4.36842C16.7895 3.5614 16.5263 2.89474 16 2.36842C15.4737 1.84211 14.807 1.57895 14 1.57895C13.193 1.57895 12.5263 1.84211 12 2.36842C11.4737 2.89474 11.2105 3.5614 11.2105 4.36842C11.2105 5.17544 11.4737 5.84211 12 6.36842C12.5263 6.89474 13.193 7.1579 14 7.1579ZM3.07895 15.8684L6.15789 11.8947L8.60526 15.2105L12.0263 10.7368L15.8947 15.8684H3.07895Z" fill="#F0E6D2"/>
</svg>
