<svg width="21" height="21" viewBox="0 0 21 21" fill="none" xmlns="http://www.w3.org/2000/svg">
<path d="M0.0195312 9.95724L5.2599 0.1875L10.5003 9.95724H0.0195312ZM5.28611 20.8125C4.13322 20.8125 3.14629 20.3873 2.3253 19.537C1.5043 18.6867 1.09381 17.6645 1.09381 16.4704C1.09381 15.2582 1.5043 14.2315 2.3253 13.3902C3.14629 12.5489 4.13322 12.1283 5.28611 12.1283C6.43899 12.1283 7.42593 12.5535 8.24692 13.4038C9.06791 14.2541 9.4784 15.2763 9.4784 16.4704C9.4784 17.6645 9.06791 18.6867 8.24692 19.537C7.42593 20.3873 6.43899 20.8125 5.28611 20.8125ZM5.28611 19.1842C6.01976 19.1842 6.63987 18.9219 7.14644 18.3972C7.65301 17.8725 7.90629 17.2303 7.90629 16.4704C7.90629 15.7105 7.65301 15.0683 7.14644 14.5436C6.63987 14.0189 6.01976 13.7566 5.28611 13.7566C4.55245 13.7566 3.93234 14.0189 3.42577 14.5436C2.9192 15.0683 2.66592 15.7105 2.66592 16.4704C2.66592 17.2303 2.9192 17.8725 3.42577 18.3972C3.93234 18.9219 4.55245 19.1842 5.28611 19.1842ZM2.69212 8.32895H7.82769L5.2599 3.55263L2.69212 8.32895ZM11.5484 20.8125V12.1283H19.933V20.8125H11.5484ZM13.1205 19.1842H18.3608V13.7566H13.1205V19.1842ZM15.7407 9.95724C14.745 9.08882 13.9109 8.35609 13.2384 7.75905C12.5659 7.16201 12.0287 6.63734 11.627 6.18503C11.2252 5.73273 10.937 5.30757 10.7623 4.90954C10.5876 4.51151 10.5003 4.08635 10.5003 3.63405C10.5003 2.8199 10.7754 2.1324 11.3256 1.57155C11.8759 1.01069 12.5615 0.730263 13.3825 0.730263C13.8366 0.730263 14.2733 0.838816 14.6926 1.05592C15.1118 1.27303 15.4612 1.58964 15.7407 2.00576C16.0201 1.58964 16.3695 1.27303 16.7887 1.05592C17.208 0.838816 17.6447 0.730263 18.0988 0.730263C18.9198 0.730263 19.6054 1.01069 20.1557 1.57155C20.7059 2.1324 20.981 2.8199 20.981 3.63405C20.981 4.08635 20.8937 4.51151 20.719 4.90954C20.5443 5.30757 20.2561 5.73273 19.8543 6.18503C19.4526 6.63734 18.9154 7.16201 18.2429 7.75905C17.5704 8.35609 16.7363 9.08882 15.7407 9.95724ZM15.7407 7.81332C17.2254 6.54688 18.208 5.64227 18.6884 5.09951C19.1687 4.55674 19.4089 4.08635 19.4089 3.68832C19.4089 3.2903 19.2954 2.96916 19.0683 2.72492C18.8412 2.48067 18.5355 2.35855 18.1512 2.35855C17.9241 2.35855 17.7014 2.42188 17.4831 2.54852C17.2647 2.67516 16.9896 2.89227 16.6577 3.19984L15.7407 4.09539L14.8236 3.19984C14.4917 2.89227 14.2166 2.67516 13.9982 2.54852C13.7799 2.42188 13.5572 2.35855 13.3301 2.35855C12.9458 2.35855 12.6401 2.48067 12.413 2.72492C12.1859 2.96916 12.0724 3.2903 12.0724 3.68832C12.0724 4.08635 12.3126 4.55674 12.7929 5.09951C13.2733 5.64227 14.2559 6.54688 15.7407 7.81332Z" fill="#F0E6D2"/>
</svg>
