<svg width="28" height="20" viewBox="0 0 28 20" fill="none" xmlns="http://www.w3.org/2000/svg">
<path d="M15.875 11.875C14.8333 11.875 13.9479 11.5104 13.2188 10.7812C12.4896 10.0521 12.125 9.16667 12.125 8.125C12.125 7.08333 12.4896 6.19792 13.2188 5.46875C13.9479 4.73958 14.8333 4.375 15.875 4.375C16.9167 4.375 17.8021 4.73958 18.5312 5.46875C19.2604 6.19792 19.625 7.08333 19.625 8.125C19.625 9.16667 19.2604 10.0521 18.5312 10.7812C17.8021 11.5104 16.9167 11.875 15.875 11.875ZM5.875 16.25C5.35417 16.25 4.91146 16.0677 4.54688 15.7031C4.18229 15.3385 4 14.8958 4 14.375V1.875C4 1.35417 4.18229 0.911458 4.54688 0.546875C4.91146 0.182292 5.35417 0 5.875 0H25.875C26.3958 0 26.8385 0.182292 27.2031 0.546875C27.5677 0.911458 27.75 1.35417 27.75 1.875V14.375C27.75 14.8958 27.5677 15.3385 27.2031 15.7031C26.8385 16.0677 26.3958 16.25 25.875 16.25H5.875ZM9 14.375H22.75C22.75 13.5 23.0521 12.7604 23.6562 12.1562C24.2604 11.5521 25 11.25 25.875 11.25V5C25 5 24.2604 4.69792 23.6562 4.09375C23.0521 3.48958 22.75 2.75 22.75 1.875H9C9 2.75 8.69792 3.48958 8.09375 4.09375C7.48958 4.69792 6.75 5 5.875 5V11.25C6.75 11.25 7.48958 11.5521 8.09375 12.1562C8.69792 12.7604 9 13.5 9 14.375ZM24 20H2.125C1.60417 20 1.16146 19.8177 0.796875 19.4531C0.432292 19.0885 0.25 18.6458 0.25 18.125V3.75H2.125V18.125H24V20ZM5.875 14.375V1.875V14.375Z" fill="#F0E6D2"/>
</svg>
