<svg width="10" height="10" viewBox="0 0 10 10" fill="none" xmlns="http://www.w3.org/2000/svg">
<path d="M0.623188 2.53125L0 1.85938L0.985507 0.796875C1.23671 0.526042 1.52657 0.325521 1.85507 0.195312C2.18357 0.0651042 2.52174 0 2.86957 0C3.21739 0 3.55314 0.0651042 3.87681 0.195312C4.20048 0.325521 4.48792 0.526042 4.73913 0.796875L5.82609 1.96875C5.99034 2.14583 6.18841 2.27865 6.42029 2.36719C6.65217 2.45573 6.88889 2.5 7.13043 2.5C7.37198 2.5 7.60145 2.45573 7.81884 2.36719C8.03623 2.27865 8.22705 2.14583 8.3913 1.96875L9.37681 0.90625L10 1.57812L9.01449 2.64063C8.76328 2.91146 8.47101 3.11198 8.13768 3.24219C7.80435 3.3724 7.46377 3.4375 7.11594 3.4375C6.76812 3.4375 6.42754 3.3724 6.0942 3.24219C5.76087 3.11198 5.4686 2.91146 5.21739 2.64063L4.13043 1.46875C3.96618 1.29167 3.77295 1.15885 3.55072 1.07031C3.3285 0.981771 3.10145 0.9375 2.86957 0.9375C2.63768 0.9375 2.41063 0.981771 2.18841 1.07031C1.96618 1.15885 1.77295 1.29167 1.6087 1.46875L0.623188 2.53125ZM0.623188 5.8125L0 5.14062L0.985507 4.07812C1.23671 3.80729 1.52657 3.60417 1.85507 3.46875C2.18357 3.33333 2.52174 3.26563 2.86957 3.26563C3.21739 3.26563 3.55314 3.33333 3.87681 3.46875C4.20048 3.60417 4.48792 3.80729 4.73913 4.07812L5.82609 5.25C5.99034 5.42708 6.18599 5.5599 6.41304 5.64844C6.6401 5.73698 6.8744 5.78125 7.11594 5.78125C7.35749 5.78125 7.58937 5.73698 7.81159 5.64844C8.03382 5.5599 8.22705 5.42708 8.3913 5.25L9.37681 4.1875L10 4.84375L9.01449 5.92188C8.76328 6.19271 8.47101 6.39323 8.13768 6.52344C7.80435 6.65365 7.46377 6.71875 7.11594 6.71875C6.76812 6.71875 6.42754 6.65365 6.0942 6.52344C5.76087 6.39323 5.4686 6.19271 5.21739 5.92188L4.13043 4.73438C3.96618 4.55729 3.77295 4.42448 3.55072 4.33594C3.3285 4.2474 3.10145 4.20312 2.86957 4.20312C2.63768 4.20312 2.41063 4.2474 2.18841 4.33594C1.96618 4.42448 1.77295 4.55729 1.6087 4.73438L0.623188 5.8125ZM0.623188 9.07812L0 8.40625L0.985507 7.34375C1.23671 7.07292 1.52657 6.86979 1.85507 6.73438C2.18357 6.59896 2.52174 6.53125 2.86957 6.53125C3.21739 6.53125 3.55314 6.59896 3.87681 6.73438C4.20048 6.86979 4.48792 7.07292 4.73913 7.34375L5.82609 8.51562C5.99034 8.69271 6.18599 8.82812 6.41304 8.92188C6.6401 9.01562 6.8744 9.0625 7.11594 9.0625C7.35749 9.0625 7.58937 9.01562 7.81159 8.92188C8.03382 8.82812 8.22705 8.69271 8.3913 8.51562L9.37681 7.45312L10 8.10938L9.01449 9.1875C8.76328 9.45833 8.47101 9.66146 8.13768 9.79688C7.80435 9.93229 7.46377 10 7.11594 10C6.76812 10 6.42754 9.93229 6.0942 9.79688C5.76087 9.66146 5.4686 9.45833 5.21739 9.1875L4.13043 8C3.96618 7.82292 3.77295 7.6901 3.55072 7.60156C3.3285 7.51302 3.10145 7.46875 2.86957 7.46875C2.63768 7.46875 2.41063 7.51302 2.18841 7.60156C1.96618 7.6901 1.77295 7.82292 1.6087 8L0.623188 9.07812Z" fill="#F0E6D2"/>
</svg>
