<svg width="21" height="20" viewBox="0 0 21 20" fill="none" xmlns="http://www.w3.org/2000/svg">
<path d="M12.15 13.55H13.65V3.425H10.075V4.925H12.15V13.55ZM5.375 17C4.975 17 4.625 16.85 4.325 16.55C4.025 16.25 3.875 15.9 3.875 15.5V1.5C3.875 1.1 4.025 0.75 4.325 0.45C4.625 0.15 4.975 0 5.375 0H19.375C19.775 0 20.125 0.15 20.425 0.45C20.725 0.75 20.875 1.1 20.875 1.5V15.5C20.875 15.9 20.725 16.25 20.425 16.55C20.125 16.85 19.775 17 19.375 17H5.375ZM5.375 15.5H19.375V1.5H5.375V15.5ZM2.375 20C1.975 20 1.625 19.85 1.325 19.55C1.025 19.25 0.875 18.9 0.875 18.5V3H2.375V18.5H17.875V20H2.375ZM5.375 1.5V15.5V1.5Z" fill="#F0E6D2"/>
</svg>
