<svg width="34" height="30" viewBox="0 0 34 30" fill="none" xmlns="http://www.w3.org/2000/svg">
<path d="M27.2577 1.39343C27.2716 0.932551 27.2792 0.468224 27.2792 0H6.89453C6.89453 0.468299 6.90229 0.932551 6.9161 1.39343H0.200195C0.200195 8.50942 4.5924 14.5954 10.8042 17.0706C12.1586 19.3288 13.7886 20.8731 15.5689 21.4386V26.7787H14.0075C12.5703 26.7787 11.4052 27.9481 11.4052 29.3906V30H22.5951V29.3906C22.5951 27.9481 21.43 26.7787 19.9927 26.7787H18.6048V21.4386C20.4096 20.8654 22.0595 19.2856 23.4249 16.9768C29.5154 14.4445 33.8002 8.42159 33.8002 1.39343H27.2577ZM2.4237 3.21185H7.00608C7.29676 7.37356 8.14303 11.1497 9.38004 14.1869C5.20698 11.9223 2.4237 7.85422 2.4237 3.21185ZM21.543 8.65443C20.879 9.20247 20.2211 9.75732 19.5585 10.3071C19.5403 10.3231 19.5215 10.3396 19.5088 10.3606C19.696 11.1782 19.9057 11.9914 20.1013 12.8073C20.2499 13.2163 19.9024 13.6989 19.466 13.6669C19.3151 13.6651 19.1839 13.582 19.0636 13.4997C18.4141 13.0879 17.7643 12.6764 17.1145 12.265C17.0591 12.2311 17.007 12.1885 16.9447 12.1681C16.208 12.6134 15.4825 13.0787 14.7477 13.5278C14.5456 13.6488 14.2773 13.6471 14.079 13.5193C13.8699 13.3944 13.7411 13.1366 13.7905 12.8934C14.0022 12.021 14.2404 11.1532 14.4424 10.2793C13.8457 9.76376 13.2396 9.25852 12.6399 8.74623C12.5041 8.63585 12.3569 8.52021 12.2979 8.34808C12.1539 8.00245 12.3819 7.55176 12.7592 7.49781C13.6575 7.42159 14.562 7.38952 15.4582 7.30694C15.7682 6.56353 16.0662 5.81443 16.3725 5.06916C16.4296 4.92055 16.4954 4.76572 16.6255 4.66605C16.9135 4.41875 17.4185 4.50156 17.582 4.8546C17.9132 5.67774 18.2383 6.50351 18.5673 7.32769C18.5728 7.35565 18.5991 7.36494 18.6248 7.36494C19.4481 7.42152 20.2709 7.48889 21.0941 7.54772C21.3304 7.55266 21.5647 7.68321 21.6714 7.89859C21.8036 8.14042 21.7594 8.476 21.543 8.65443ZM24.8425 14.0643C26.0528 11.0482 26.881 7.31818 27.1677 3.21185H31.5767C31.5767 7.77149 28.892 11.7774 24.8425 14.0643Z" fill="white"/>
</svg>
