<svg width="20" height="20" viewBox="0 0 20 20" fill="none" xmlns="http://www.w3.org/2000/svg">
<path d="M5.99966 20C5.49122 20 5.05904 19.8248 4.70312 19.4743C4.34721 19.1239 4.16926 18.6984 4.16926 18.1977C4.16926 17.6971 4.34721 17.2716 4.70312 16.9212C5.05904 16.5707 5.49122 16.3955 5.99966 16.3955C6.49116 16.3955 6.9191 16.5707 7.28349 16.9212C7.64787 17.2716 7.83007 17.6971 7.83007 18.1977C7.83007 18.6984 7.65211 19.1239 7.2962 19.4743C6.94029 19.8248 6.50811 20 5.99966 20ZM16.1686 20C15.6601 20 15.228 19.8248 14.872 19.4743C14.5161 19.1239 14.3382 18.6984 14.3382 18.1977C14.3382 17.6971 14.5161 17.2716 14.872 16.9212C15.228 16.5707 15.6601 16.3955 16.1686 16.3955C16.6601 16.3955 17.088 16.5707 17.4524 16.9212C17.8168 17.2716 17.999 17.6971 17.999 18.1977C17.999 18.6984 17.821 19.1239 17.4651 19.4743C17.1092 19.8248 16.677 20 16.1686 20ZM4.6777 3.47935L7.47415 9.18648H14.7958L17.9736 3.47935H4.6777ZM3.91503 1.97747H18.8888C19.4311 1.97747 19.7743 2.14018 19.9184 2.46558C20.0624 2.79099 20.0158 3.15394 19.7785 3.55444L16.3465 9.63705C16.1771 9.92073 15.9398 10.1669 15.6347 10.3755C15.3296 10.5841 14.9992 10.6884 14.6432 10.6884H6.94029L5.51664 13.2916H17.999V14.7935H5.74544C5.03361 14.7935 4.52093 14.5599 4.20739 14.0926C3.89385 13.6254 3.89809 13.0997 4.2201 12.5156L5.84713 9.56195L1.98294 1.50188H0V0H2.97441L3.91503 1.97747Z" fill="#F0E6D2"/>
</svg>
