<svg width="18" height="23" viewBox="0 0 18 23" fill="none" xmlns="http://www.w3.org/2000/svg">
<path d="M6.76744 3.90465C7.30233 3.90465 7.76144 3.71298 8.14477 3.32965C8.5281 2.94632 8.71977 2.48721 8.71977 1.95233C8.71977 1.41744 8.5281 0.958333 8.14477 0.575C7.76144 0.191667 7.30233 0 6.76744 0C6.23256 0 5.77345 0.191667 5.39012 0.575C5.00678 0.958333 4.81512 1.41744 4.81512 1.95233C4.81512 2.48721 5.00678 2.94632 5.39012 3.32965C5.77345 3.71298 6.23256 3.90465 6.76744 3.90465ZM6.90116 23V16.6081L9.78954 13.9605L10.9128 18.9884L18 17.5174L17.7058 16.0198L12.3837 17.0895L10.4314 7.22093L13.1058 8.47791V12.0616H14.7105V7.3814L10.3244 5.53605C9.75388 5.28643 9.34826 5.13043 9.10756 5.06802C8.86686 5.00562 8.62171 4.97442 8.37209 4.97442C8.0155 4.97442 7.69903 5.05019 7.42268 5.20174C7.14632 5.35329 6.91008 5.58062 6.71395 5.88372L5.5907 7.67558C5.12713 8.42442 4.49419 9.07519 3.69186 9.62791C2.88954 10.1806 1.95349 10.457 0.883722 10.457V12.0616C2.0783 12.0616 3.14361 11.7853 4.07965 11.2326C5.0157 10.6798 5.88488 9.85078 6.68721 8.74535L7.73023 12.9709L5.29651 15.2174V23H6.90116Z" fill="#F0E6D2"/>
</svg>
