<svg width="18" height="17" viewBox="0 0 18 17" fill="none" xmlns="http://www.w3.org/2000/svg">
<path d="M15.4252 9.68053C13.9718 11.2776 12.0289 13.1561 9.59194 15.3172C9.59155 15.3176 9.59115 15.3179 9.59075 15.3183L9 15.8355L8.40925 15.3183C8.40885 15.3179 8.40845 15.3176 8.40806 15.3172C5.97111 13.1561 4.02825 11.2776 2.57479 9.68053C1.16144 8.12749 0.5 6.60504 0.5 5.10574C0.5 3.92585 0.902804 2.962 1.7094 2.17948C2.518 1.39503 3.51196 1.00001 4.725 1.00001C5.40954 1.00001 6.09408 1.15896 6.78284 1.48637C7.44212 1.79978 8.04791 2.32308 8.59382 3.08354L8.97604 3.61598L9.38855 3.10665C10.018 2.3295 10.6481 1.79706 11.2731 1.48099C11.9091 1.15937 12.5744 1.00001 13.275 1.00001C14.488 1.00001 15.482 1.39503 16.2906 2.17948C17.0972 2.962 17.5 3.92585 17.5 5.10574C17.5 6.60504 16.8386 8.12749 15.4252 9.68053Z" fill="#FB8F8F" stroke="white"/>
</svg>
