<svg width="20" height="20" viewBox="0 0 20 20" fill="none" xmlns="http://www.w3.org/2000/svg">
<path d="M1.66667 20C1.22222 20 0.833333 19.8333 0.5 19.5C0.166667 19.1667 0 18.7778 0 18.3333V3.80556C0 3.56482 0.0277778 3.33796 0.0833334 3.125C0.138889 2.91204 0.240741 2.72222 0.388889 2.55556L1.94444 0.444445C2.09259 0.277778 2.27315 0.162037 2.48611 0.0972223C2.69907 0.0324075 2.91667 0 3.13889 0H16.8611C17.0833 0 17.2963 0.0324075 17.5 0.0972223C17.7037 0.162037 17.8796 0.277778 18.0278 0.444445L19.6111 2.55556C19.7593 2.72222 19.8611 2.91204 19.9167 3.125C19.9722 3.33796 20 3.56482 20 3.80556V18.3333C20 18.7778 19.8333 19.1667 19.5 19.5C19.1667 19.8333 18.7778 20 18.3333 20H1.66667ZM2.13889 2.94444H17.8333L16.8333 1.66667H3.13889L2.13889 2.94444ZM1.66667 18.3333H18.3333V4.61111H1.66667V18.3333ZM9.16667 15.6111H10.8333V10.1944L13.1389 12.5L14.3333 11.3056L10 6.97222L5.66667 11.3056L6.86111 12.5L9.16667 10.1944V15.6111ZM1.66667 18.3333V4.61111V18.3333Z" fill="#F0E6D2"/>
</svg>
