<svg width="25" height="25" viewBox="0 0 25 25" fill="none" xmlns="http://www.w3.org/2000/svg">
<path d="M17.0625 10.8438C17.5417 10.8438 17.9427 10.6823 18.2656 10.3594C18.5885 10.0365 18.75 9.63542 18.75 9.15625C18.75 8.67708 18.5885 8.27604 18.2656 7.95312C17.9427 7.63021 17.5417 7.46875 17.0625 7.46875C16.5833 7.46875 16.1823 7.63021 15.8594 7.95312C15.5365 8.27604 15.375 8.67708 15.375 9.15625C15.375 9.63542 15.5365 10.0365 15.8594 10.3594C16.1823 10.6823 16.5833 10.8438 17.0625 10.8438ZM7.9375 10.8438C8.41667 10.8438 8.81771 10.6823 9.14062 10.3594C9.46354 10.0365 9.625 9.63542 9.625 9.15625C9.625 8.67708 9.46354 8.27604 9.14062 7.95312C8.81771 7.63021 8.41667 7.46875 7.9375 7.46875C7.45833 7.46875 7.05729 7.63021 6.73438 7.95312C6.41146 8.27604 6.25 8.67708 6.25 9.15625C6.25 9.63542 6.41146 10.0365 6.73438 10.3594C7.05729 10.6823 7.45833 10.8438 7.9375 10.8438ZM12.5 19.3438C13.875 19.3438 15.1406 18.974 16.2969 18.2344C17.4531 17.4948 18.2917 16.4896 18.8125 15.2188H17.1875C16.7083 16.0521 16.0521 16.6927 15.2188 17.1406C14.3854 17.5885 13.4896 17.8125 12.5312 17.8125C11.5521 17.8125 10.6406 17.5938 9.79688 17.1562C8.95312 16.7188 8.30208 16.0729 7.84375 15.2188H6.1875C6.72917 16.4896 7.57292 17.4948 8.71875 18.2344C9.86458 18.974 11.125 19.3438 12.5 19.3438ZM12.5 25C10.7917 25 9.17708 24.6719 7.65625 24.0156C6.13542 23.3594 4.80729 22.4635 3.67188 21.3281C2.53646 20.1927 1.64062 18.8646 0.984375 17.3438C0.328125 15.8229 0 14.1979 0 12.4688C0 10.7604 0.328125 9.14583 0.984375 7.625C1.64062 6.10417 2.53646 4.78125 3.67188 3.65625C4.80729 2.53125 6.13542 1.64062 7.65625 0.984375C9.17708 0.328125 10.8021 0 12.5312 0C14.2396 0 15.8542 0.328125 17.375 0.984375C18.8958 1.64062 20.2188 2.53125 21.3438 3.65625C22.4688 4.78125 23.3594 6.10417 24.0156 7.625C24.6719 9.14583 25 10.7708 25 12.5C25 14.2083 24.6719 15.8229 24.0156 17.3438C23.3594 18.8646 22.4688 20.1927 21.3438 21.3281C20.2188 22.4635 18.8958 23.3594 17.375 24.0156C15.8542 24.6719 14.2292 25 12.5 25ZM12.5 23.125C15.4583 23.125 17.9688 22.0885 20.0312 20.0156C22.0938 17.9427 23.125 15.4375 23.125 12.5C23.125 9.54167 22.0938 7.03125 20.0312 4.96875C17.9688 2.90625 15.4583 1.875 12.5 1.875C9.5625 1.875 7.05729 2.90625 4.98438 4.96875C2.91146 7.03125 1.875 9.54167 1.875 12.5C1.875 15.4375 2.91146 17.9427 4.98438 20.0156C7.05729 22.0885 9.5625 23.125 12.5 23.125Z" fill="white"/>
</svg>
