<svg width="13" height="13" viewBox="0 0 13 13" fill="none" xmlns="http://www.w3.org/2000/svg">
<path d="M6.0125 13V9.83125L3.59125 12.2525L2.8925 11.57L6.0125 8.45V6.9875H4.55L1.495 10.0425L0.78 9.37625L3.16875 6.9875H0V6.0125H3.16875L0.73125 3.575L1.43 2.87625L4.55 6.0125H6.0125V4.53375L2.9575 1.47875L3.64 0.76375L6.0125 3.1525V0H6.9875V3.1525L9.425 0.715L10.1075 1.41375L6.9875 4.53375V6.0125H8.46625L11.5375 2.94125L12.2362 3.62375L9.8475 6.0125H13V6.9875H9.8475L12.2525 9.40875L11.5863 10.1075L8.46625 6.9875H6.9875V8.45L10.1075 11.5863L9.44125 12.285L6.9875 9.83125V13H6.0125Z" fill="#2BE4DD"/>
</svg>
