<svg width="40" height="21" viewBox="0 0 40 21" fill="none" xmlns="http://www.w3.org/2000/svg">
<path d="M0 20.5V18.2917C0 17.2083 0.583333 16.3333 1.75 15.6667C2.91667 15 4.41667 14.6667 6.25 14.6667C6.61111 14.6667 6.94444 14.6736 7.25 14.6875C7.55556 14.7014 7.86111 14.7361 8.16667 14.7917C7.94444 15.2639 7.77778 15.7431 7.66667 16.2292C7.55556 16.7153 7.5 17.2361 7.5 17.7917V20.5H0ZM10 20.5V17.7917C10 15.9861 10.9236 14.5278 12.7708 13.4167C14.6181 12.3056 17.0278 11.75 20 11.75C23 11.75 25.4167 12.3056 27.25 13.4167C29.0833 14.5278 30 15.9861 30 17.7917V20.5H10ZM32.5 20.5V17.7917C32.5 17.2361 32.4514 16.7153 32.3542 16.2292C32.2569 15.7431 32.0972 15.2639 31.875 14.7917C32.1806 14.7361 32.4861 14.7014 32.7917 14.6875C33.0972 14.6736 33.4167 14.6667 33.75 14.6667C35.6389 14.6667 37.1528 15 38.2917 15.6667C39.4306 16.3333 40 17.2083 40 18.2917V20.5H32.5ZM20 14.25C17.7778 14.25 15.9722 14.5833 14.5833 15.25C13.1944 15.9167 12.5 16.7639 12.5 17.7917V18H27.5V17.75C27.5 16.75 26.8125 15.9167 25.4375 15.25C24.0625 14.5833 22.25 14.25 20 14.25ZM6.25 13.4167C5.44444 13.4167 4.75694 13.1319 4.1875 12.5625C3.61806 11.9931 3.33333 11.3056 3.33333 10.5C3.33333 9.69444 3.61806 9.00694 4.1875 8.4375C4.75694 7.86805 5.44444 7.58333 6.25 7.58333C7.05556 7.58333 7.74306 7.86805 8.3125 8.4375C8.88194 9.00694 9.16667 9.69444 9.16667 10.5C9.16667 11.3056 8.88194 11.9931 8.3125 12.5625C7.74306 13.1319 7.05556 13.4167 6.25 13.4167ZM33.75 13.4167C32.9444 13.4167 32.2569 13.1319 31.6875 12.5625C31.1181 11.9931 30.8333 11.3056 30.8333 10.5C30.8333 9.69444 31.1181 9.00694 31.6875 8.4375C32.2569 7.86805 32.9444 7.58333 33.75 7.58333C34.5556 7.58333 35.2431 7.86805 35.8125 8.4375C36.3819 9.00694 36.6667 9.69444 36.6667 10.5C36.6667 11.3056 36.3819 11.9931 35.8125 12.5625C35.2431 13.1319 34.5556 13.4167 33.75 13.4167ZM20 10.5C18.6111 10.5 17.4306 10.0139 16.4583 9.04167C15.4861 8.06944 15 6.88889 15 5.5C15 4.08333 15.4861 2.89583 16.4583 1.9375C17.4306 0.979167 18.6111 0.5 20 0.5C21.4167 0.5 22.6042 0.979167 23.5625 1.9375C24.5208 2.89583 25 4.08333 25 5.5C25 6.88889 24.5208 8.06944 23.5625 9.04167C22.6042 10.0139 21.4167 10.5 20 10.5ZM20 3C19.3056 3 18.7153 3.23611 18.2292 3.70833C17.7431 4.18056 17.5 4.77778 17.5 5.5C17.5 6.19444 17.7431 6.78472 18.2292 7.27083C18.7153 7.75694 19.3056 8 20 8C20.7222 8 21.3194 7.75694 21.7917 7.27083C22.2639 6.78472 22.5 6.19444 22.5 5.5C22.5 4.77778 22.2639 4.18056 21.7917 3.70833C21.3194 3.23611 20.7222 3 20 3Z" fill="white"/>
</svg>
