<svg width="17" height="18" viewBox="0 0 17 18" fill="none" xmlns="http://www.w3.org/2000/svg">
<path d="M8.52125 12.375C7.62875 12.375 6.87083 12.045 6.2475 11.385C5.62417 10.725 5.3125 9.93 5.3125 9C5.3125 8.055 5.62417 7.25625 6.2475 6.60375C6.87083 5.95125 7.62167 5.625 8.5 5.625C9.3925 5.625 10.1469 5.95125 10.7631 6.60375C11.3794 7.25625 11.6875 8.0475 11.6875 8.9775C11.6875 9.9225 11.3794 10.725 10.7631 11.385C10.1469 12.045 9.39958 12.375 8.52125 12.375ZM8.5 11.025C9.03833 11.025 9.49167 10.8262 9.86 10.4287C10.2283 10.0312 10.4125 9.555 10.4125 9C10.4125 8.43 10.2283 7.95 9.86 7.56C9.49167 7.17 9.04542 6.975 8.52125 6.975C7.98292 6.975 7.52604 7.17 7.15063 7.56C6.77521 7.95 6.5875 8.4225 6.5875 8.9775C6.5875 9.5475 6.77521 10.0312 7.15063 10.4287C7.52604 10.8262 7.97583 11.025 8.5 11.025ZM12.7712 18C13.0262 17.16 13.2317 16.3388 13.3875 15.5363C13.5433 14.7338 13.6567 14.1375 13.7275 13.7475C13.005 14.6175 12.1833 15.2513 11.2625 15.6488C10.3417 16.0462 9.42083 16.245 8.5 16.245C6.57333 16.245 4.88396 16.0987 3.43187 15.8062C1.97979 15.5138 0.835833 15.24 0 14.985V13.545C0.793333 13.815 1.57604 14.0325 2.34812 14.1975C3.12021 14.3625 3.69042 14.4825 4.05875 14.5575C3.27958 13.8825 2.68458 13.0312 2.27375 12.0037C1.86292 10.9762 1.6575 9.975 1.6575 9C1.6575 6.945 1.79563 5.1525 2.07188 3.6225C2.34812 2.0925 2.60667 0.885 2.8475 0H4.2075C3.9525 0.84 3.75063 1.66125 3.60188 2.46375C3.45313 3.26625 3.35042 3.8625 3.29375 4.2525C3.97375 3.4275 4.78125 2.805 5.71625 2.385C6.65125 1.965 7.57917 1.755 8.5 1.755C10.4408 1.755 12.1338 1.90125 13.5788 2.19375C15.0238 2.48625 16.1642 2.76 17 3.015V4.455C16.2067 4.185 15.431 3.9675 14.6731 3.8025C13.9152 3.6375 13.3521 3.525 12.9838 3.465C13.7913 4.2 14.3863 5.0625 14.7688 6.0525C15.1513 7.0425 15.3425 8.025 15.3425 9C15.3425 11.055 15.2044 12.8475 14.9281 14.3775C14.6519 15.9075 14.3933 17.115 14.1525 18H12.7712ZM8.5 14.895C10.0442 14.895 11.3581 14.3212 12.4419 13.1737C13.5256 12.0263 14.0675 10.635 14.0675 9C14.0675 7.365 13.5256 5.97375 12.4419 4.82625C11.3581 3.67875 10.0442 3.105 8.5 3.105C6.95583 3.105 5.64188 3.67875 4.55813 4.82625C3.47438 5.97375 2.9325 7.365 2.9325 9C2.9325 10.635 3.47438 12.0263 4.55813 13.1737C5.64188 14.3212 6.95583 14.895 8.5 14.895Z" fill="white"/>
</svg>
