<svg width="13" height="17" viewBox="0 0 13 17" fill="none" xmlns="http://www.w3.org/2000/svg">
<path d="M4.34688 11.22L6.5 9.5625L8.59219 11.22L7.71875 8.5425L9.87187 6.9275H7.27187L6.5 4.27125L5.72813 6.9275H3.12812L5.24062 8.5425L4.34688 11.22ZM6.5 17C4.60417 16.5042 3.04688 15.3531 1.82812 13.5469C0.609375 11.7406 0 9.76083 0 7.6075V2.55L6.5 0L13 2.55V7.6075C13 9.76083 12.3906 11.7406 11.1719 13.5469C9.95312 15.3531 8.39583 16.5042 6.5 17ZM6.5 15.6825C8.05729 15.1442 9.32682 14.1277 10.3086 12.6331C11.2904 11.1385 11.7812 9.46333 11.7812 7.6075V3.4425L6.5 1.36L1.21875 3.4425V7.6075C1.21875 9.46333 1.70964 11.1385 2.69141 12.6331C3.67318 14.1277 4.94271 15.1442 6.5 15.6825Z" fill="white"/>
</svg>
