<svg width="21" height="20" viewBox="0 0 21 20" fill="none" xmlns="http://www.w3.org/2000/svg">
<path d="M2.56572 4.50563V0.901126L6.17023 2.70338L2.56572 4.50563ZM16.0826 4.50563V0.901126L19.6871 2.70338L16.0826 4.50563ZM9.77473 3.60451V0L13.3792 1.80225L9.77473 3.60451ZM9.37423 20C8.10598 19.9499 6.93785 19.8373 5.86985 19.6621C4.80185 19.4869 3.87986 19.2657 3.10389 18.9987C2.32792 18.7317 1.71883 18.4272 1.27661 18.0851C0.834391 17.743 0.613281 17.3801 0.613281 16.9962V7.98498C0.613281 7.56779 0.87611 7.17981 1.40177 6.82103C1.92742 6.46224 2.64082 6.14518 3.54194 5.86984C4.44307 5.59449 5.50273 5.37756 6.72092 5.21902C7.93911 5.06049 9.24073 4.98123 10.6258 4.98123C12.0109 4.98123 13.3125 5.06049 14.5307 5.21902C15.7489 5.37756 16.8085 5.59449 17.7097 5.86984C18.6108 6.14518 19.3242 6.46224 19.8498 6.82103C20.3755 7.17981 20.6383 7.56779 20.6383 7.98498V16.9962C20.6383 17.3801 20.4172 17.743 19.975 18.0851C19.5328 18.4272 18.9237 18.7317 18.1477 18.9987C17.3717 19.2657 16.4497 19.4869 15.3817 19.6621C14.3137 19.8373 13.1456 19.9499 11.8774 20V15.7447H9.37423V20ZM10.6258 9.48686C12.2445 9.48686 13.6838 9.36587 14.9437 9.1239C16.2036 8.88194 17.4343 8.51898 18.6358 8.03504C18.252 7.63454 17.355 7.27576 15.9449 6.9587C14.5348 6.64164 12.7618 6.4831 10.6258 6.4831C8.48979 6.4831 6.71674 6.64164 5.30665 6.9587C3.89655 7.27576 2.9996 7.63454 2.61578 8.03504C3.81729 8.51898 5.04799 8.88194 6.3079 9.1239C7.56781 9.36587 9.00711 9.48686 10.6258 9.48686ZM7.87235 18.373V14.2428H13.3792V18.373C14.7142 18.2895 15.8699 18.1101 16.8461 17.8348C17.8223 17.5595 18.5857 17.2382 19.1364 16.8711V9.4368C18.1852 9.87067 16.942 10.2378 15.4068 10.5382C13.8715 10.8385 12.2779 10.9887 10.6258 10.9887C8.97373 10.9887 7.38007 10.8385 5.84482 10.5382C4.30957 10.2378 3.06635 9.87067 2.11516 9.4368V16.8711C2.66585 17.2382 3.4293 17.5595 4.40552 17.8348C5.38174 18.1101 6.53735 18.2895 7.87235 18.373Z" fill="#F0E6D2"/>
</svg>
