<svg width="15" height="15" viewBox="0 0 15 15" fill="none" xmlns="http://www.w3.org/2000/svg">
<path d="M6.69975 14.7022L0.297767 8.30025C0.0992556 8.10174 0 7.83499 0 7.5C0 7.16501 0.0992556 6.89826 0.297767 6.69975L6.69975 0.297767C6.89826 0.0992556 7.16501 0 7.5 0C7.83499 0 8.10174 0.0992556 8.30025 0.297767L14.7022 6.69975C14.9007 6.89826 15 7.16501 15 7.5C15 7.83499 14.9007 8.10174 14.7022 8.30025L8.30025 14.7022C8.10174 14.9007 7.83499 15 7.5 15C7.16501 15 6.89826 14.9007 6.69975 14.7022ZM7.5 13.902L13.902 7.5L7.5 1.09801L1.09801 7.5L7.5 13.902ZM7.5 11.1663L11.1663 7.5L7.5 3.83375L6.69975 4.63399L9.00744 6.94169H3.83375V8.05831H9.00744L6.69975 10.366L7.5 11.1663Z" fill="#FFE777"/>
</svg>
