<svg width="17" height="17" viewBox="0 0 17 17" fill="none" xmlns="http://www.w3.org/2000/svg">
<path d="M8.5 13.1538C9.435 13.1538 10.2956 12.9023 11.0819 12.3994C11.8681 11.8965 12.4383 11.2129 12.7925 10.3488H4.2075C4.57583 11.2129 5.14958 11.8965 5.92875 12.3994C6.70792 12.9023 7.565 13.1538 8.5 13.1538ZM4.7175 7.37375L5.67375 6.4175L6.63 7.37375L7.395 6.60875L5.67375 4.8875L3.9525 6.60875L4.7175 7.37375ZM10.3913 7.37375L11.3475 6.4175L12.3038 7.37375L13.0688 6.60875L11.3475 4.8875L9.62625 6.60875L10.3913 7.37375ZM8.5 17C7.33833 17 6.24042 16.7769 5.20625 16.3306C4.17208 15.8844 3.26896 15.2752 2.49688 14.5031C1.72479 13.731 1.11562 12.8279 0.669375 11.7938C0.223125 10.7596 0 9.66167 0 8.5C0 7.32417 0.223125 6.21917 0.669375 5.185C1.11562 4.15083 1.72479 3.25125 2.49688 2.48625C3.26896 1.72125 4.17208 1.11562 5.20625 0.669375C6.24042 0.223125 7.33833 0 8.5 0C9.67583 0 10.7808 0.223125 11.815 0.669375C12.8492 1.11562 13.7488 1.72125 14.5138 2.48625C15.2788 3.25125 15.8844 4.15083 16.3306 5.185C16.7769 6.21917 17 7.32417 17 8.5C17 9.66167 16.7769 10.7596 16.3306 11.7938C15.8844 12.8279 15.2788 13.731 14.5138 14.5031C13.7488 15.2752 12.8492 15.8844 11.815 16.3306C10.7808 16.7769 9.67583 17 8.5 17ZM8.5 15.725C10.5117 15.725 12.2188 15.0202 13.6213 13.6106C15.0238 12.201 15.725 10.4975 15.725 8.5C15.725 6.48833 15.0238 4.78125 13.6213 3.37875C12.2188 1.97625 10.5117 1.275 8.5 1.275C6.5025 1.275 4.79896 1.97625 3.38938 3.37875C1.97979 4.78125 1.275 6.48833 1.275 8.5C1.275 10.4975 1.97979 12.201 3.38938 13.6106C4.79896 15.0202 6.5025 15.725 8.5 15.725Z" fill="white"/>
</svg>
