<svg width="20" height="21" viewBox="0 0 20 21" fill="none" xmlns="http://www.w3.org/2000/svg">
<path d="M6.0607 20.375C5.56008 20.375 5.13455 20.1998 4.78411 19.8493C4.43367 19.4989 4.25845 19.0734 4.25845 18.5727C4.25845 18.0721 4.43367 17.6466 4.78411 17.2962C5.13455 16.9457 5.56008 16.7705 6.0607 16.7705C6.54464 16.7705 6.966 16.9457 7.32478 17.2962C7.68357 17.6466 7.86296 18.0721 7.86296 18.5727C7.86296 19.0734 7.68774 19.4989 7.3373 19.8493C6.98686 20.1998 6.56133 20.375 6.0607 20.375ZM16.0732 20.375C15.5726 20.375 15.1471 20.1998 14.7966 19.8493C14.4462 19.4989 14.271 19.0734 14.271 18.5727C14.271 18.0721 14.4462 17.6466 14.7966 17.2962C15.1471 16.9457 15.5726 16.7705 16.0732 16.7705C16.5572 16.7705 16.9785 16.9457 17.3373 17.2962C17.6961 17.6466 17.8755 18.0721 17.8755 18.5727C17.8755 19.0734 17.7003 19.4989 17.3498 19.8493C16.9994 20.1998 16.5738 20.375 16.0732 20.375ZM4.75908 3.85435L7.51252 9.56148H14.7215L17.8504 3.85435H4.75908ZM4.00814 2.35247H18.7516C19.2856 2.35247 19.6235 2.51518 19.7653 2.84058C19.9072 3.16599 19.8613 3.52894 19.6277 3.92944L16.2484 10.012C16.0816 10.2957 15.8479 10.5419 15.5476 10.7505C15.2472 10.9591 14.9218 11.0634 14.5713 11.0634H6.98686L5.58511 13.6666H17.8755V15.1685H5.81039C5.10952 15.1685 4.60472 14.9349 4.296 14.4676C3.98728 14.0004 3.99145 13.4747 4.30851 12.8906L5.91052 9.93695L2.10576 1.87688H0.15332V0.375H3.08198L4.00814 2.35247ZM7.51252 9.56148H14.7215H7.51252Z" fill="#FFF4E6"/>
</svg>
