<svg width="13" height="11" viewBox="0 0 13 11" fill="none" xmlns="http://www.w3.org/2000/svg">
<path d="M0.75 10.5V9.5625H4.35C4.15 8.61458 3.7125 7.78385 3.0375 7.07031C2.3625 6.35677 1.6 5.88542 0.75 5.65625C0.95 5.60417 1.1475 5.5651 1.3425 5.53906C1.5375 5.51302 1.74 5.5 1.95 5.5C3.29 5.5 4.425 5.98438 5.355 6.95312C6.285 7.92188 6.75 9.10417 6.75 10.5H0.75ZM7.65 10.5C7.65 10.0625 7.61 9.67969 7.53 9.35156C7.45 9.02344 7.35 8.69792 7.23 8.375C7.63 7.45833 8.23 6.75 9.03 6.25C9.83 5.75 10.67 5.5 11.55 5.5C11.76 5.5 11.9625 5.51302 12.1575 5.53906C12.3525 5.5651 12.55 5.60417 12.75 5.65625C11.9 5.88542 11.13 6.36198 10.44 7.08594C9.75 7.8099 9.32 8.63542 9.15 9.5625H12.75V10.5H7.65ZM6.78 7.48438C6.69 6.69271 6.755 5.95312 6.975 5.26562C7.195 4.57812 7.5175 3.97917 7.9425 3.46875C8.3675 2.95833 8.88 2.55208 9.48 2.25C10.08 1.94792 10.715 1.78646 11.385 1.76562C10.825 2.13021 10.2975 2.6276 9.8025 3.25781C9.3075 3.88802 8.995 4.5625 8.865 5.28125C8.425 5.5 8.025 5.80469 7.665 6.19531C7.305 6.58594 7.01 7.01562 6.78 7.48438ZM5.865 6.29688C5.705 6.14062 5.53 5.98438 5.34 5.82812C5.15 5.67188 4.99 5.55208 4.86 5.46875C4.89 5.34375 4.9125 5.20573 4.9275 5.05469C4.9425 4.90365 4.95 4.78125 4.95 4.6875C4.95 3.89583 4.83 3.14583 4.59 2.4375C4.35 1.72917 4.01 1.08333 3.57 0.5C4.27 0.791667 4.89 1.2526 5.43 1.88281C5.97 2.51302 6.35 3.23438 6.57 4.04688C6.39 4.38021 6.2375 4.74219 6.1125 5.13281C5.9875 5.52344 5.905 5.91146 5.865 6.29688Z" fill="#F0E6D2"/>
</svg>
