<svg width="24" height="18" viewBox="0 0 24 18" fill="none" xmlns="http://www.w3.org/2000/svg">
<path d="M17.3714 6.92754V5.18841H24V6.92754H17.3714ZM9.14286 8.69565C7.88571 8.69565 6.85714 8.28986 6.05714 7.47826C5.25714 6.66667 4.85714 5.62319 4.85714 4.34783C4.85714 3.07246 5.25714 2.02899 6.05714 1.21739C6.85714 0.405797 7.88571 0 9.14286 0C10.4 0 11.4286 0.405797 12.2286 1.21739C13.0286 2.02899 13.4286 3.07246 13.4286 4.34783C13.4286 5.62319 13.0286 6.66667 12.2286 7.47826C11.4286 8.28986 10.4 8.69565 9.14286 8.69565ZM0 18V15.2754C0 14.599 0.166667 13.9855 0.5 13.4348C0.833333 12.8841 1.31429 12.4734 1.94286 12.2029C3.37143 11.5652 4.64286 11.1159 5.75714 10.8551C6.87143 10.5942 8 10.4638 9.14286 10.4638C10.2857 10.4638 11.4095 10.5942 12.5143 10.8551C13.619 11.1159 14.8857 11.5652 16.3143 12.2029C16.9429 12.4928 17.4286 12.9082 17.7714 13.4493C18.1143 13.9903 18.2857 14.599 18.2857 15.2754V18H0ZM1.71429 16.2609H16.5714V15.2754C16.5714 14.9662 16.4857 14.6715 16.3143 14.3913C16.1429 14.1111 15.9143 13.9034 15.6286 13.7681C14.2762 13.1304 13.1333 12.7101 12.2 12.5072C11.2667 12.3043 10.2476 12.2029 9.14286 12.2029C8.0381 12.2029 7.01429 12.3043 6.07143 12.5072C5.12857 12.7101 3.98095 13.1304 2.62857 13.7681C2.34286 13.9034 2.11905 14.1111 1.95714 14.3913C1.79524 14.6715 1.71429 14.9662 1.71429 15.2754V16.2609ZM9.14286 6.95652C9.88571 6.95652 10.5 6.71014 10.9857 6.21739C11.4714 5.72464 11.7143 5.10145 11.7143 4.34783C11.7143 3.5942 11.4714 2.97101 10.9857 2.47826C10.5 1.98551 9.88571 1.73913 9.14286 1.73913C8.4 1.73913 7.78571 1.98551 7.3 2.47826C6.81429 2.97101 6.57143 3.5942 6.57143 4.34783C6.57143 5.10145 6.81429 5.72464 7.3 6.21739C7.78571 6.71014 8.4 6.95652 9.14286 6.95652Z" fill="#F0E6D2"/>
</svg>
