<svg width="16" height="20" viewBox="0 0 16 20" fill="none" xmlns="http://www.w3.org/2000/svg">
<path d="M5.738 11.1429L6.59514 8.40476L4.33324 6.64286H7.09515L7.99991 3.80952L8.88086 6.64286H11.6666L9.40467 8.40476L10.238 11.1429L7.99991 9.45238L5.738 11.1429ZM2.38086 20V12.7619C1.66657 12.0159 1.15467 11.1984 0.845145 10.3095C0.535621 9.42064 0.380859 8.52381 0.380859 7.61905C0.380859 5.46032 1.11102 3.65079 2.57134 2.19048C4.03165 0.730159 5.84118 0 7.99991 0C10.1586 0 11.9682 0.730159 13.4285 2.19048C14.8888 3.65079 15.619 5.46032 15.619 7.61905C15.619 8.52381 15.4642 9.42064 15.1547 10.3095C14.8451 11.1984 14.3332 12.0159 13.619 12.7619V20L7.99991 18.119L2.38086 20ZM7.99991 13.8095C9.73007 13.8095 11.1944 13.2103 12.3928 12.0119C13.5912 10.8135 14.1904 9.34921 14.1904 7.61905C14.1904 5.88889 13.5912 4.4246 12.3928 3.22619C11.1944 2.02778 9.73007 1.42857 7.99991 1.42857C6.26975 1.42857 4.80546 2.02778 3.60705 3.22619C2.40864 4.4246 1.80943 5.88889 1.80943 7.61905C1.80943 9.34921 2.40864 10.8135 3.60705 12.0119C4.80546 13.2103 6.26975 13.8095 7.99991 13.8095ZM3.80943 18L7.99991 16.6905L12.1904 18V13.9286C11.5555 14.3889 10.8729 14.7222 10.1428 14.9286C9.41261 15.1349 8.69832 15.2381 7.99991 15.2381C7.30149 15.2381 6.58721 15.1349 5.85705 14.9286C5.12689 14.7222 4.44435 14.3889 3.80943 13.9286V18Z" fill="#F0E6D2"/>
</svg>
