<svg width="21" height="21" viewBox="0 0 21 21" fill="none" xmlns="http://www.w3.org/2000/svg">
<path d="M16.9264 16.7578V14.1797H14.4372V12.6328H16.9264V10.0547H18.4199V12.6328H20.9091V14.1797H18.4199V16.7578H16.9264ZM4.97835 8.99766L4.10714 7.08984L2.26515 6.1875L4.10714 5.28516L4.97835 3.37734L5.84957 5.28516L7.69156 6.1875L5.84957 7.08984L4.97835 8.99766ZM4.97835 19.3102L4.10714 17.4023L2.26515 16.5L4.10714 15.5977L4.97835 13.6898L5.84957 15.5977L7.69156 16.5L5.84957 17.4023L4.97835 19.3102ZM1.8171 13.2258L1.24459 11.9367L0 11.3438L1.24459 10.7508L1.8171 9.46172L2.38961 10.7508L3.6342 11.3438L2.38961 11.9367L1.8171 13.2258ZM15.9307 20.625C13.9228 19.7656 12.3007 18.3691 11.0644 16.4355C9.8281 14.502 9.20996 12.4609 9.20996 10.3125C9.20996 8.74844 9.57089 7.19297 10.2927 5.64609C11.0146 4.09922 11.9978 2.73281 13.2424 1.54688H9.06061V0H15.9307V7.11562H14.4372V2.50078C13.2922 3.56641 12.3837 4.79961 11.7116 6.20039C11.0395 7.60117 10.7035 8.97188 10.7035 10.3125C10.7035 12.0484 11.1847 13.7156 12.1472 15.3141C13.1097 16.9125 14.3709 18.1156 15.9307 18.9234V20.625Z" fill="#F0E6D2"/>
</svg>
