<svg width="9" height="11" viewBox="0 0 9 11" fill="none" xmlns="http://www.w3.org/2000/svg">
<path d="M3.64654 10.3936C3.57178 10.4685 3.48249 10.5038 3.37866 10.4997C3.27483 10.4955 3.18553 10.456 3.11077 10.3811C3.04432 10.3145 3.00694 10.2313 2.99864 10.1314C2.99033 10.0315 3.01525 9.94415 3.07339 9.86925L5.49058 6.49869L1.45363 6.1117C1.23767 6.09505 1.09438 5.9827 1.02377 5.77464C0.953169 5.56658 1.00093 5.39181 1.16706 5.25033L6.33783 0.606439C6.41259 0.531538 6.50189 0.496167 6.60572 0.500329C6.70955 0.50449 6.79884 0.544021 6.8736 0.618922C6.94005 0.685502 6.97743 0.768725 6.98574 0.868594C6.99405 0.968463 6.96913 1.05585 6.91098 1.13075L4.4938 4.50131L8.53074 4.8883C8.74671 4.90495 8.89 5.0173 8.9606 5.22536C9.03121 5.43342 8.98344 5.60819 8.81731 5.74967L3.64654 10.3936Z" fill="#F0E6D2"/>
</svg>
