<svg width="15" height="18" viewBox="0 0 15 18" fill="none" xmlns="http://www.w3.org/2000/svg">
<path d="M7.5 18C5.55 18 3.89583 17.3208 2.5375 15.9625C1.17917 14.6042 0.5 12.95 0.5 11C0.5 9.71667 0.7125 8.425 1.1375 7.125C1.5625 5.825 2.1125 4.64583 2.7875 3.5875C3.4625 2.52917 4.21667 1.66667 5.05 1C5.88333 0.333333 6.7 0 7.5 0C8.31667 0 9.1375 0.333333 9.9625 1C10.7875 1.66667 11.5375 2.52917 12.2125 3.5875C12.8875 4.64583 13.4375 5.825 13.8625 7.125C14.2875 8.425 14.5 9.71667 14.5 11C14.5 12.95 13.8208 14.6042 12.4625 15.9625C11.1042 17.3208 9.45 18 7.5 18ZM7.5 17C9.16667 17 10.5833 16.4167 11.75 15.25C12.9167 14.0833 13.5 12.6667 13.5 11C13.5 9.9 13.3125 8.7625 12.9375 7.5875C12.5625 6.4125 12.0792 5.3375 11.4875 4.3625C10.8958 3.3875 10.2458 2.58333 9.5375 1.95C8.82917 1.31667 8.15 1 7.5 1C6.85 1 6.17083 1.3125 5.4625 1.9375C4.75417 2.5625 4.10417 3.3625 3.5125 4.3375C2.92083 5.3125 2.4375 6.39167 2.0625 7.575C1.6875 8.75833 1.5 9.9 1.5 11C1.5 12.6667 2.08333 14.0833 3.25 15.25C4.41667 16.4167 5.83333 17 7.5 17ZM8.125 14.975C8.275 14.975 8.39583 14.925 8.4875 14.825C8.57917 14.725 8.625 14.6083 8.625 14.475C8.625 14.325 8.57917 14.2042 8.4875 14.1125C8.39583 14.0208 8.275 13.975 8.125 13.975C7.15833 13.975 6.33333 13.6333 5.65 12.95C4.96667 12.2667 4.625 11.4417 4.625 10.475C4.625 10.325 4.57917 10.2042 4.4875 10.1125C4.39583 10.0208 4.275 9.975 4.125 9.975C3.99167 9.975 3.875 10.0208 3.775 10.1125C3.675 10.2042 3.625 10.325 3.625 10.475C3.625 11.725 4.0625 12.7875 4.9375 13.6625C5.8125 14.5375 6.875 14.975 8.125 14.975Z" fill="#FDD56F"/>
</svg>
