<svg width="17" height="21" viewBox="0 0 17 21" fill="none" xmlns="http://www.w3.org/2000/svg">
<path d="M8.49997 20.8125C6.34268 20.8125 4.51267 20.0343 3.00995 18.4779C1.50722 16.9214 0.755859 15.026 0.755859 12.7917C0.755859 11.3212 0.990948 9.84115 1.46113 8.35156C1.9313 6.86198 2.53977 5.51085 3.28652 4.29818C4.03328 3.0855 4.86761 2.09722 5.78953 1.33333C6.71145 0.569444 7.61493 0.1875 8.49997 0.1875C9.40345 0.1875 10.3115 0.569444 11.2242 1.33333C12.1369 2.09722 12.9667 3.0855 13.7134 4.29818C14.4602 5.51085 15.0686 6.86198 15.5388 8.35156C16.009 9.84115 16.2441 11.3212 16.2441 12.7917C16.2441 15.026 15.4927 16.9214 13.99 18.4779C12.4873 20.0343 10.6573 20.8125 8.49997 20.8125ZM8.49997 19.6667C10.3438 19.6667 11.9111 18.9983 13.2017 17.6615C14.4924 16.3247 15.1378 14.7014 15.1378 12.7917C15.1378 11.5312 14.9303 10.2279 14.5155 8.88151C14.1006 7.53516 13.5659 6.30339 12.9113 5.1862C12.2568 4.06901 11.5377 3.14757 10.7541 2.42187C9.97043 1.69618 9.21906 1.33333 8.49997 1.33333C7.78087 1.33333 7.02951 1.69141 6.24588 2.40755C5.46225 3.1237 4.74315 4.04036 4.08859 5.15755C3.43403 6.27474 2.89932 7.51128 2.48445 8.86719C2.06959 10.2231 1.86216 11.5312 1.86216 12.7917C1.86216 14.7014 2.5075 16.3247 3.79819 17.6615C5.08887 18.9983 6.65613 19.6667 8.49997 19.6667ZM9.19141 17.3464C9.35735 17.3464 9.49103 17.2891 9.59244 17.1745C9.69385 17.0599 9.74456 16.9262 9.74456 16.7734C9.74456 16.6016 9.69385 16.4631 9.59244 16.3581C9.49103 16.253 9.35735 16.2005 9.19141 16.2005C8.12198 16.2005 7.20928 15.809 6.45331 15.026C5.69734 14.2431 5.31935 13.2977 5.31935 12.1901C5.31935 12.0182 5.26865 11.8798 5.16723 11.7747C5.06582 11.6697 4.93215 11.6172 4.7662 11.6172C4.61869 11.6172 4.48962 11.6697 4.37899 11.7747C4.26836 11.8798 4.21305 12.0182 4.21305 12.1901C4.21305 13.6224 4.69706 14.8398 5.66507 15.8424C6.63308 16.8451 7.80853 17.3464 9.19141 17.3464Z" fill="#F0E6D2"/>
</svg>
